# WaveFront *.obj file (generated by CINEMA 4D)

mtllib ./PumpkinPasty.mtl

v 3.86533093452454 -0.00220300001092 0.00000000000000
v 0.00000000000000 0.00000000000000 0.00000000000000
v 2.73320198059082 -0.00220300001092 2.73320198059082
v 0.00000000000000 -0.00220300001092 -3.86533093452454
v 2.73320198059082 -0.00220300001092 -2.73320198059082
v 0.00000000000000 -0.00220300001092 3.86533093452454
v -2.73320198059082 -0.00220300001092 2.73320198059082
v -3.86533093452454 -0.00220300001092 0.00000000000000
v -2.73320198059082 -0.00220300001092 -2.73320198059082
v 3.70461606979370 2.12775897979736 3.70461606979370
v 5.23911809921265 2.12775897979736 0.00000000000000
v 0.00000000000000 2.12775897979736 5.23911809921265
v -3.70461606979370 2.12775897979736 3.70461606979370
v -5.23911809921265 2.12775897979736 0.00000000000000
v -3.70461606979370 2.12775897979736 -3.70461606979370
v 0.00000000000000 2.12775897979736 -5.23911809921265
v 3.70461606979370 2.12775897979736 -3.70461606979370
v 5.23911809921265 4.49183893203735 0.00000000000000
v 3.70461606979370 4.49183893203735 3.70461606979370
v 0.00000000000000 4.49183893203735 5.23911809921265
v -3.70461606979370 4.49183893203735 3.70461606979370
v -5.23911809921265 4.49183893203735 0.00000000000000
v -3.70461606979370 4.49183893203735 -3.70461606979370
v 0.00000000000000 4.49183893203735 -5.23911809921265
v 3.70461606979370 4.49183893203735 -3.70461606979370
v 4.20144701004028 6.62179994583130 0.00000000000000
v 2.97087097167969 6.62179994583130 2.97087097167969
v 0.00000000000000 6.62179994583130 4.20144701004028
v -2.97087097167969 6.62179994583130 2.97087097167969
v -4.20144701004028 6.62179994583130 0.00000000000000
v -2.97087097167969 6.62179994583130 -2.97087097167969
v 0.00000000000000 6.62179994583130 -4.20144701004028
v 2.97087097167969 6.62179994583130 -2.97087097167969
v 2.33162689208984 7.59142923355103 0.00000000000000
v 1.64870905876160 7.59142923355103 1.64870905876160
v 0.00000000000000 7.59142923355103 2.33162689208984
v -1.64870905876160 7.59142923355103 1.64870905876160
v -2.33162689208984 7.59142923355103 0.00000000000000
v -1.64870905876160 7.59142923355103 -1.64870905876160
v 0.00000000000000 7.59142923355103 -2.33162689208984
v 1.64870905876160 7.59142923355103 -1.64870905876160
v -0.10819999873638 9.44714069366455 0.00000000000000
v 0.57863199710846 9.12744140625000 -0.65445601940155
v 0.57863199710846 9.12744140625000 0.65445601940155
v 1.05880498886108 8.86311912536621 0.00000000000000
v 0.00000000000000 7.50637197494507 1.32094204425812
v 1.21208095550537 7.50637197494507 0.00000000000000
v -1.21208095550537 7.50637197494507 0.00000000000000
v 0.00000000000000 7.50637197494507 -1.32094299793243
# 49 vertices

vn 0.00000000000000 0.99807995557785 -0.06193858385086
vn 0.04353139922023 0.99825346469879 -0.03993764147162
vn -0.03775040060282 0.99279183149338 0.11375121027231
vn -0.28229266405106 0.67512100934982 0.68155884742737
vn 0.00000000000000 0.95796549320221 0.28688338398933
vn 0.10147075355053 0.98967570066452 0.10122074186802
vn -0.05965812504292 0.99821889400482 0.00000000000000
vn 0.00000000000000 0.95796549320221 -0.28688338398933
vn 0.00000000000000 0.99807995557785 0.06193858385086
vn 0.10147075355053 0.98967570066452 -0.10122074186802
vn 0.28941148519516 0.95720475912094 0.00000000000000
vn 0.43926796317101 0.73528009653091 0.51614612340927
vn 0.00000000000000 0.70373934507370 0.71045827865601
vn 0.00000000000000 0.30013209581375 0.95389765501022
vn -0.37894636392593 0.13956575095654 0.91483390331268
vn 0.51614612340927 0.73528009653091 -0.43926796317101
vn 0.95829689502716 -0.28559842705727 -0.01003141328692
vn 0.69313681125641 0.22631636261940 -0.68435537815094
vn 0.97403329610825 0.22632025182247 0.00618771184236
vn 0.75335663557053 0.65313625335693 0.07659506797791
vn 0.68435537815094 0.22631636261940 0.69313681125641
vn -0.05237692967057 -0.24466526508331 0.96819192171097
vn 0.68471109867096 -0.28560361266136 0.67052310705185
vn 0.07687571644783 -0.82713270187378 0.55672395229340
vn 0.44803583621979 -0.82713347673416 0.33928471803665
vn -0.36894330382347 -0.26547294855118 0.89073282480240
vn -0.24759918451309 -0.76245427131653 0.59779441356659
vn 0.00000000000000 -1.00000000000000 0.00000000000000
vn 0.55672395229340 -0.82713270187378 -0.07687571644783
vn 0.67052310705185 -0.28560361266136 -0.68471109867096
vn 0.33928471803665 -0.82713347673416 -0.44803583621979
vn -0.07687571644783 -0.82713270187378 -0.55672395229340
vn -0.44803583621979 -0.82713347673416 -0.33928471803665
vn 0.07287586480379 -0.34041029214859 -0.93744862079620
vn 0.00000000000000 0.15081714093685 -0.98856168985367
vn 0.00000000000000 0.62092626094818 -0.78386896848679
vn -0.57904714345932 -0.28313279151917 -0.76455229520798
vn -0.69313681125641 0.22631636261940 -0.68435537815094
vn -0.51614612340927 0.73528009653091 -0.43926796317101
vn -0.10147075355053 0.98967570066452 -0.10122074186802
vn 0.06503210961819 0.99779438972473 0.01331267599016
vn -0.28941148519516 0.95720475912094 0.00000000000000
vn -0.75335663557053 0.65313625335693 0.07659506797791
vn -0.97403329610825 0.22632025182247 0.00618771184236
vn -0.95006871223450 -0.28313615918159 -0.13116142153740
vn -0.19684523344040 0.97703862190247 0.08153186738491
vn -0.60941296815872 0.75160199403763 0.25240904092789
vn -0.88715392351151 0.27913409471512 0.36748075485229
vn -0.89073282480240 -0.26547294855118 0.36894330382347
vn -0.55672395229340 -0.82713270187378 0.07687571644783
vn -0.45616328716278 -0.86960715055466 0.18894042074680
vn -0.18784622848034 0.38819265365601 -0.90223073959351
vn 0.54041391611099 0.64550912380219 -0.53969514369965
vn 0.99762088060379 0.06893937289715 0.00000000000000
vn -0.58563429117203 0.81057536602020 0.00000000000000
vn -0.86924141645432 0.49438789486885 0.00000000000000
vn -0.18784622848034 0.38819265365601 0.90223073959351
vn 0.54041391611099 0.64550912380219 0.53969514369965
vn 0.89443343877792 0.44720107316971 0.00000000000000
# 59 normals

vt 3.94444394111633 0.75470602512360 0.00000000000000
vt 5.94444513320923 0.75470602512360 0.00000000000000
vt 4.94444417953491 0.76311004161835 0.00000000000000
vt 4.94444417953491 0.66730898618698 0.00000000000000
vt 3.94444394111633 0.76311004161835 0.00000000000000
vt 2.94444394111633 0.76311004161835 0.00000000000000
vt 1.94444394111633 0.75470602512360 0.00000000000000
vt -0.05555599927902 0.76311004161835 0.00000000000000
vt -0.05555500090122 0.75470602512360 0.00000000000000
vt 0.94444400072098 0.76311004161835 0.00000000000000
vt 1.94444394111633 0.76311004161835 0.00000000000000
vt 2.94444394111633 0.66730898618698 0.00000000000000
vt 3.94444394111633 0.66730898618698 0.00000000000000
vt 3.94444394111633 0.45686602592468 0.00000000000000
vt 4.94444417953491 0.45686602592468 0.00000000000000
vt 0.94444400072098 0.66730898618698 0.00000000000000
vt 1.94444394111633 0.22329199314117 0.00000000000000
vt 0.94444400072098 0.45686602592468 0.00000000000000
vt 1.94444394111633 0.45686602592468 0.00000000000000
vt 1.94444394111633 0.66730898618698 0.00000000000000
vt 2.94444394111633 0.45686602592468 0.00000000000000
vt 3.94444394111633 0.22329199314117 0.00000000000000
vt 2.94444394111633 0.22329199314117 0.00000000000000
vt 3.94444394111633 0.01284897327423 0.00000000000000
vt 2.94444394111633 0.01284897327423 0.00000000000000
vt 4.94444417953491 0.22329199314117 0.00000000000000
vt 4.94444417953491 0.01284897327423 0.00000000000000
vt 0.50000000000000 0.01306700706482 0.00000000000000
vt 1.94444394111633 0.01284897327423 0.00000000000000
vt 0.94444400072098 0.22329199314117 0.00000000000000
vt 0.94444400072098 0.01284897327423 0.00000000000000
vt -0.05555599927902 0.01284897327423 0.00000000000000
vt -1.05555605888367 0.01284897327423 0.00000000000000
vt -0.05555599927902 0.22329199314117 0.00000000000000
vt -0.05555599927902 0.45686602592468 0.00000000000000
vt -0.05555599927902 0.66730898618698 0.00000000000000
vt -1.05555605888367 0.22329199314117 0.00000000000000
vt -1.05555605888367 0.45686602592468 0.00000000000000
vt -1.05555605888367 0.66730898618698 0.00000000000000
vt -1.05555605888367 0.76311004161835 0.00000000000000
vt -2.05555510520935 0.75470602512360 0.00000000000000
vt -2.05555605888367 0.76311004161835 0.00000000000000
vt -2.05555605888367 0.66730898618698 0.00000000000000
vt -2.05555605888367 0.45686602592468 0.00000000000000
vt -2.05555605888367 0.22329199314117 0.00000000000000
vt -3.05555605888367 0.76311004161835 0.00000000000000
vt -3.05555605888367 0.66730898618698 0.00000000000000
vt -3.05555605888367 0.45686602592468 0.00000000000000
vt -3.05555605888367 0.22329199314117 0.00000000000000
vt -2.05555605888367 0.01284897327423 0.00000000000000
vt -3.05555605888367 0.01284897327423 0.00000000000000
vt 0.17607599496841 0.91996198892593 0.00000000000000
vt 0.96271002292633 0.88324403762817 0.00000000000000
vt 0.17607599496841 0.88084602355957 0.00000000000000
vt 0.95310199260712 0.92682802677155 0.00000000000000
vt 0.17607599496841 0.95907801389694 0.00000000000000
vt 0.97065401077270 0.85277402400970 0.00000000000000
# 57 texture coordinates

o material_0
usemtl material_0
f 46/1/1 48/2/2 37/3/3
f 29/4/4 36/5/5 37/3/3
f 36/5/5 46/1/1 37/3/3
f 35/6/6 46/1/1 36/5/5
f 47/7/7 46/1/1 35/6/6
f 40/8/8 49/9/9 41/10/10
f 49/9/9 47/7/7 41/10/10
f 47/7/7 34/11/11 41/10/10
f 34/11/11 47/7/7 35/6/6
f 27/12/12 34/11/11 35/6/6
f 27/12/12 35/6/6 36/5/5
f 28/13/13 27/12/12 36/5/5
f 28/13/13 36/5/5 29/4/4
f 29/4/4 20/14/14 28/13/13
f 21/15/15 20/14/14 29/4/4
f 20/14/14 27/12/12 28/13/13
f 33/16/16 41/10/10 34/11/11
f 11/17/17 25/18/18 18/19/19
f 25/18/18 33/16/16 18/19/19
f 18/19/19 33/16/16 26/20/20
f 26/20/20 33/16/16 34/11/11
f 26/20/20 34/11/11 27/12/12
f 19/21/21 26/20/20 27/12/12
f 19/21/21 27/12/12 20/14/14
f 12/22/22 19/21/21 20/14/14
f 10/23/23 19/21/21 12/22/22
f 12/22/22 6/24/24 10/23/23
f 3/25/25 10/23/23 6/24/24
f 10/23/23 3/25/25 11/17/17
f 11/17/17 18/19/19 10/23/23
f 10/23/23 18/19/19 19/21/21
f 18/19/19 26/20/20 19/21/21
f 21/15/15 12/22/22 20/14/14
f 13/26/26 12/22/22 21/15/15
f 13/26/26 7/27/27 12/22/22
f 7/27/27 6/24/24 12/22/22
f 6/24/24 7/27/27 2/28/28
f 6/24/24 2/28/28 3/25/25
f 1/29/29 3/25/25 2/28/28
f 1/29/29 11/17/17 3/25/25
f 11/17/17 1/29/29 17/30/30
f 17/30/30 25/18/18 11/17/17
f 5/31/31 17/30/30 1/29/29
f 1/29/29 2/28/28 5/31/31
f 4/32/32 2/28/28 9/33/33
f 4/32/32 5/31/31 2/28/28
f 4/32/32 16/34/34 5/31/31
f 17/30/30 5/31/31 16/34/34
f 16/34/34 24/35/35 17/30/30
f 17/30/30 24/35/35 25/18/18
f 24/35/35 32/36/36 25/18/18
f 25/18/18 32/36/36 33/16/16
f 32/36/36 40/8/8 33/16/16
f 33/16/16 40/8/8 41/10/10
f 16/34/34 4/32/32 15/37/37
f 16/34/34 15/37/37 24/35/35
f 24/35/35 15/37/37 23/38/38
f 24/35/35 23/38/38 32/36/36
f 32/36/36 23/38/38 31/39/39
f 32/36/36 31/39/39 40/8/8
f 40/8/8 31/39/39 39/40/40
f 39/40/40 49/9/9 40/8/8
f 48/41/41 49/9/9 39/40/40
f 38/42/42 48/41/41 39/40/40
f 31/39/39 38/42/42 39/40/40
f 30/43/43 38/42/42 31/39/39
f 31/39/39 22/44/44 30/43/43
f 23/38/38 22/44/44 31/39/39
f 23/38/38 14/45/45 22/44/44
f 15/37/37 14/45/45 23/38/38
f 15/37/37 9/33/33 14/45/45
f 4/32/32 9/33/33 15/37/37
f 37/46/46 48/41/41 38/42/42
f 38/42/42 29/47/47 37/46/46
f 30/43/43 29/47/47 38/42/42
f 30/43/43 21/48/48 29/47/47
f 22/44/44 21/48/48 30/43/43
f 22/44/44 13/49/49 21/48/48
f 14/45/45 13/49/49 22/44/44
f 14/45/45 8/50/50 13/49/49
f 9/33/33 8/50/50 14/45/45
f 8/50/50 9/33/33 2/28/28
f 8/50/50 7/51/51 13/49/49
f 8/50/50 2/28/28 7/51/51
f 49/52/52 43/53/53 47/54/54
f 49/52/52 42/55/55 43/53/53
f 48/56/56 42/55/55 49/52/52
f 48/56/56 46/52/57 42/55/55
f 42/55/55 46/52/57 44/53/58
f 46/52/57 47/54/54 44/53/58
f 44/53/58 47/54/54 45/57/59
f 47/54/54 43/53/53 45/57/59
f 43/53/53 44/53/58 45/57/59
f 42/55/55 44/53/58 43/53/53

