<?xml version="1.0" encoding="UTF-8" standalone="no"?>
<!-- Created with Inkscape (http://www.inkscape.org/) -->

<svg
   xmlns:dc="http://purl.org/dc/elements/1.1/"
   xmlns:cc="http://creativecommons.org/ns#"
   xmlns:rdf="http://www.w3.org/1999/02/22-rdf-syntax-ns#"
   xmlns:svg="http://www.w3.org/2000/svg"
   xmlns="http://www.w3.org/2000/svg"
   xmlns:sodipodi="http://sodipodi.sourceforge.net/DTD/sodipodi-0.dtd"
   xmlns:inkscape="http://www.inkscape.org/namespaces/inkscape"
   width="92.832359mm"
   height="39.715649mm"
   viewBox="0 0 92.832359 39.715649"
   version="1.1"
   id="svg8"
   inkscape:version="0.92.3 (2405546, 2018-03-11)"
   sodipodi:docname="404_2.svg">
  <defs
     id="defs2" />
  <sodipodi:namedview
     id="base"
     pagecolor="#ffffff"
     bordercolor="#666666"
     borderopacity="1.0"
     inkscape:pageopacity="0.0"
     inkscape:pageshadow="2"
     inkscape:zoom="0.95901357"
     inkscape:cx="484.37866"
     inkscape:cy="309.18769"
     inkscape:document-units="mm"
     inkscape:current-layer="layer1"
     showgrid="false"
     inkscape:object-paths="false"
     inkscape:snap-intersection-paths="true"
     inkscape:snap-smooth-nodes="true"
     inkscape:lockguides="true"
     inkscape:window-width="1600"
     inkscape:window-height="837"
     inkscape:window-x="-8"
     inkscape:window-y="-8"
     inkscape:window-maximized="1"
     fit-margin-top="0"
     fit-margin-left="0"
     fit-margin-right="0"
     fit-margin-bottom="0" />
  <metadata
     id="metadata5">
    <rdf:RDF>
      <cc:Work
         rdf:about="">
        <dc:format>image/svg+xml</dc:format>
        <dc:type
           rdf:resource="http://purl.org/dc/dcmitype/StillImage" />
        <dc:title></dc:title>
      </cc:Work>
    </rdf:RDF>
  </metadata>
  <g
     inkscape:label="Layer 1"
     inkscape:groupmode="layer"
     id="layer1"
     transform="translate(-60.688322,-175.57812)">
    <g
       id="g948">
      <path
         d="m 81.881238,175.57812 q -7.861356,10.12648 -15.989175,17.18836 -0.799459,1.59892 0.799459,1.33244 l 11.325654,-0.39973 h 0.932707 v 6.26242 l 0.133213,1.33244 q 0,1.46566 -8.127837,0.79946 l -0.666209,0.93269 h 18.787281 l -0.39973,-0.79946 q -5.196482,0.53297 -5.862709,-0.93269 l -0.266481,-7.32838 h 4.530273 q 0.399729,0.26648 0.399729,3.73081 l 1.199188,0.39973 q -0.666228,-5.19648 0.532961,-13.72405 l -1.065939,-0.26648 q -0.266481,7.46161 -1.332438,7.59486 l -4.530254,-0.39973 z M 79.083133,191.70054 68.8234,192.36675 Q 76.151778,182.64 79.216364,180.7746 Z"
         style="font-style:normal;font-variant:normal;font-weight:normal;font-stretch:normal;font-size:medium;line-height:125%;font-family:Lumos;-inkscape-font-specification:'Lumos, Normal';font-variant-ligatures:normal;font-variant-caps:normal;font-variant-numeric:normal;font-feature-settings:normal;text-align:start;letter-spacing:1.10000002px;word-spacing:0px;writing-mode:lr-tb;text-anchor:start;fill:#000000;fill-opacity:1;stroke:none;stroke-width:0.26458332px;stroke-linecap:butt;stroke-linejoin:miter;stroke-opacity:1"
         id="path4609"
         inkscape:connector-curvature="0" />
      <path
         d="m 141.33051,175.57812 q -7.86134,10.12648 -15.98918,17.18836 -0.79945,1.59892 0.79946,1.33244 l 11.32567,-0.39973 h 0.93269 v 6.26242 l 0.13322,1.33244 q 0,1.46566 -8.12784,0.79946 l -0.66621,0.93269 h 18.78728 l -0.39973,-0.79946 q -5.19648,0.53297 -5.86269,-0.93269 l -0.2665,-7.32838 h 4.53027 q 0.39973,0.26648 0.39973,3.73081 l 1.19919,0.39973 q -0.66621,-5.19648 0.53298,-13.72405 l -1.06596,-0.26648 q -0.26648,7.46161 -1.33242,7.59486 l -4.53027,-0.39973 z m -2.79811,16.12242 -10.25971,0.66621 q 7.32836,-9.72675 10.39296,-11.59215 z"
         style="font-style:normal;font-variant:normal;font-weight:normal;font-stretch:normal;font-size:medium;line-height:125%;font-family:Lumos;-inkscape-font-specification:'Lumos, Normal';font-variant-ligatures:normal;font-variant-caps:normal;font-variant-numeric:normal;font-feature-settings:normal;text-align:start;letter-spacing:1.10000002px;word-spacing:0px;writing-mode:lr-tb;text-anchor:start;fill:#000000;fill-opacity:1;stroke:none;stroke-width:0.26458332px;stroke-linecap:butt;stroke-linejoin:miter;stroke-opacity:1"
         id="path4613"
         inkscape:connector-curvature="0" />
      <path
         d="m 62.540402,212.4963 -0.07717,-0.0579 q -0.01929,-0.81029 -0.250804,-0.84887 -0.771702,-0.21222 -0.983919,0.30868 -0.212217,0.5209 0.684884,0.68489 0.897104,0.16398 0.887458,1.03215 -0.0097,0.86816 -0.80064,0.96462 -0.790996,0.0965 -1.06109,-0.28939 -0.135049,0 -0.135049,0.55949 l -0.09646,0.0772 q 0.07717,-0.82958 -0.01929,-1.69774 l 0.09647,0.0579 q 0.03858,0.71383 0.385849,0.99357 0.347266,0.27974 0.790993,0.0965 0.443731,-0.18328 0.376206,-0.71382 -0.06752,-0.53055 -0.819933,-0.66559 -0.752409,-0.13505 -0.627007,-0.90676 0.125402,-0.7717 1.244367,-0.73311 0.289388,0.17363 0.366559,-0.40514 l 0.07717,-0.0386 q -0.154342,0.75241 -0.03859,1.58199 z"
         style="font-style:normal;font-variant:normal;font-weight:normal;font-stretch:normal;font-size:medium;line-height:125%;font-family:Lumos;-inkscape-font-specification:'Lumos, Normal';font-variant-ligatures:normal;font-variant-caps:normal;font-variant-numeric:normal;font-feature-settings:normal;text-align:start;letter-spacing:1.10000002px;word-spacing:0px;writing-mode:lr-tb;text-anchor:start;fill:#000000;fill-opacity:1;stroke:none;stroke-width:0.26458332px;stroke-linecap:butt;stroke-linejoin:miter;stroke-opacity:1"
         id="path4550"
         inkscape:connector-curvature="0" />
      <path
         d="m 64.683527,212.27202 q 0.894691,-0.10369 1.343245,0.25322 0.450961,0.3545 0.352086,0.81752 -0.09887,0.46302 -0.482312,0.81269 -0.381029,0.34727 -1.229899,0.30869 -0.848871,-0.0362 -1.044207,-0.64389 -0.192927,-0.61013 0.161573,-1.04421 0.356912,-0.43649 0.899514,-0.50402 z m -0.05064,0.16399 q -0.897104,0.15675 -0.916398,0.89228 -0.01688,0.73312 0.923632,0.92604 0.942922,0.19051 1.282954,-0.3545 0.342442,-0.54743 0.02169,-1.01286 -0.318328,-0.46784 -1.311891,-0.45096 z"
         style="font-style:normal;font-variant:normal;font-weight:normal;font-stretch:normal;font-size:medium;line-height:125%;font-family:Lumos;-inkscape-font-specification:'Lumos, Normal';font-variant-ligatures:normal;font-variant-caps:normal;font-variant-numeric:normal;font-feature-settings:normal;text-align:start;letter-spacing:1.10000002px;word-spacing:0px;writing-mode:lr-tb;text-anchor:start;fill:#000000;fill-opacity:1;stroke:none;stroke-width:0.26458332px;stroke-linecap:butt;stroke-linejoin:miter;stroke-opacity:1"
         id="path4552"
         inkscape:connector-curvature="0" />
      <path
         d="m 66.91347,212.18762 q 0.557072,0.0699 1.661567,0.0121 0.817523,0.20257 0.696945,0.78859 -0.118169,0.58601 -0.865754,0.77411 l 0.561895,0.48955 q 0.115756,0.0386 0.327975,0.0579 l 0.01929,0.13505 h -0.964625 l 0.01929,-0.0965 0.173633,-0.0579 -0.39791,-0.42444 q -0.139872,-0.0892 -0.01447,-0.1471 0.870577,-0.26286 0.747586,-0.8537 -0.122989,-0.59083 -1.024917,-0.55707 -0.166396,-0.0193 -0.180866,0.0941 v 1.8135 q 0.02894,0.19052 0.361736,0.17605 l 0.02653,0.0579 h -1.21543 l 0.02653,-0.0579 q 0.344853,0.0289 0.42926,-0.17605 v -1.79661 q -0.04341,-0.1447 -0.332798,-0.13023 z"
         style="font-style:normal;font-variant:normal;font-weight:normal;font-stretch:normal;font-size:medium;line-height:125%;font-family:Lumos;-inkscape-font-specification:'Lumos, Normal';font-variant-ligatures:normal;font-variant-caps:normal;font-variant-numeric:normal;font-feature-settings:normal;text-align:start;letter-spacing:1.10000002px;word-spacing:0px;writing-mode:lr-tb;text-anchor:start;fill:#000000;fill-opacity:1;stroke:none;stroke-width:0.26458332px;stroke-linecap:butt;stroke-linejoin:miter;stroke-opacity:1"
         id="path4554"
         inkscape:connector-curvature="0" />
      <path
         d="m 69.905465,212.18762 q 0.557073,0.0699 1.661571,0.0121 0.81752,0.20257 0.696941,0.78859 -0.118165,0.58601 -0.865754,0.77411 l 0.561896,0.48955 q 0.115755,0.0386 0.327975,0.0579 l 0.01929,0.13505 h -0.964626 l 0.01929,-0.0965 0.173633,-0.0579 -0.397909,-0.42444 q -0.139872,-0.0892 -0.01447,-0.1471 0.870577,-0.26286 0.747585,-0.8537 -0.122989,-0.59083 -1.024913,-0.55707 -0.166399,-0.0193 -0.18087,0.0941 v 1.8135 q 0.02894,0.19052 0.361736,0.17605 l 0.02653,0.0579 h -1.215429 l 0.02653,-0.0579 q 0.344855,0.0289 0.42926,-0.17605 v -1.79661 q -0.04341,-0.1447 -0.332799,-0.13023 z"
         style="font-style:normal;font-variant:normal;font-weight:normal;font-stretch:normal;font-size:medium;line-height:125%;font-family:Lumos;-inkscape-font-specification:'Lumos, Normal';font-variant-ligatures:normal;font-variant-caps:normal;font-variant-numeric:normal;font-feature-settings:normal;text-align:start;letter-spacing:1.10000002px;word-spacing:0px;writing-mode:lr-tb;text-anchor:start;fill:#000000;fill-opacity:1;stroke:none;stroke-width:0.26458332px;stroke-linecap:butt;stroke-linejoin:miter;stroke-opacity:1"
         id="path4556"
         inkscape:connector-curvature="0" />
      <path
         d="m 75.815458,212.40707 -0.872987,1.12861 -0.108522,0.22669 0.01206,0.55707 q 0.09646,0.0892 0.352086,0.0892 l 0.02653,0.0651 h -1.18408 l 0.01688,-0.0651 q 0.294211,-0.0241 0.335206,-0.0651 v -0.69453 l -0.964626,-1.26849 q -0.07717,-0.0772 -0.41479,-0.0675 l -0.106109,-0.0772 q 0.540192,0 1.21543,0 l -0.02894,0.0579 q -0.241157,-0.0193 -0.221867,0.0579 l 0.906751,1.19614 0.889868,-1.14067 q 0.01688,-0.11334 -0.388263,-0.1037 l -0.01929,-0.0579 h 0.945335 l -0.04823,0.0675 q -0.274918,0.005 -0.342442,0.0941 z"
         style="font-style:normal;font-variant:normal;font-weight:normal;font-stretch:normal;font-size:medium;line-height:125%;font-family:Lumos;-inkscape-font-specification:'Lumos, Normal';font-variant-ligatures:normal;font-variant-caps:normal;font-variant-numeric:normal;font-feature-settings:normal;text-align:start;letter-spacing:1.10000002px;word-spacing:0px;writing-mode:lr-tb;text-anchor:start;fill:#000000;fill-opacity:1;stroke:none;stroke-width:0.26458332px;stroke-linecap:butt;stroke-linejoin:miter;stroke-opacity:1"
         id="path4558"
         inkscape:connector-curvature="0" />
      <path
         d="m 77.095242,213.84678 v 0.59806 l 0.424434,0.0579 q 0.135049,0.15434 -0.01929,0.69453 l 0.03858,0.0965 0.192927,-0.67524 0.03858,-0.19293 v -0.57877 z"
         style="font-style:normal;font-variant:normal;font-weight:normal;font-stretch:normal;font-size:medium;line-height:125%;font-family:Lumos;-inkscape-font-specification:'Lumos, Normal';font-variant-ligatures:normal;font-variant-caps:normal;font-variant-numeric:normal;font-feature-settings:normal;text-align:start;letter-spacing:1.10000002px;word-spacing:0px;writing-mode:lr-tb;text-anchor:start;fill:#000000;fill-opacity:1;stroke:none;stroke-width:0.26458332px;stroke-linecap:butt;stroke-linejoin:miter;stroke-opacity:1"
         id="path4560"
         inkscape:connector-curvature="0" />
      <path
         d="m 82.654797,212.7471 -0.658358,1.75321 q -0.115755,0.27251 -0.24598,0 l -0.880221,-1.91719 -0.03858,-0.0724 q -0.03617,-0.1664 -0.42926,-0.15434 l -0.04823,-0.0724 h 1.215429 l -0.03617,0.0603 q -0.318326,0 -0.291799,0.11093 l 0.725882,1.74839 0.532955,-1.418 0.07717,-0.19293 0.01929,-0.11575 q -0.135046,-0.11576 -0.327973,-0.0965 l -0.03858,-0.11575 h 1.00321 l -0.01929,0.15434 q -0.308681,-0.0386 -0.270097,0.21222 l 0.916395,1.60128 0.991155,-1.7918 q 0,-0.14469 -0.342442,-0.11334 l -0.03376,-0.0724 0.901927,0.0145 -0.05064,0.0699 q -0.23392,0.0289 -0.313502,0.13264 l -1.080383,2.02089 q -0.144693,0.27974 -0.299035,0 z"
         style="font-style:normal;font-variant:normal;font-weight:normal;font-stretch:normal;font-size:medium;line-height:125%;font-family:Lumos;-inkscape-font-specification:'Lumos, Normal';font-variant-ligatures:normal;font-variant-caps:normal;font-variant-numeric:normal;font-feature-settings:normal;text-align:start;letter-spacing:1.10000002px;word-spacing:0px;writing-mode:lr-tb;text-anchor:start;fill:#000000;fill-opacity:1;stroke:none;stroke-width:0.26458332px;stroke-linecap:butt;stroke-linejoin:miter;stroke-opacity:1"
         id="path4562"
         inkscape:connector-curvature="0" />
      <path
         d="m 87.918492,212.85562 -0.03376,-0.80305 h -0.09646 q 0.01929,0.19534 -0.173632,0.18087 l -1.678451,0.0217 0.03858,0.0555 q 0.289388,0.0338 0.38344,0.0916 v 1.91478 q -0.01688,0.13505 -0.284565,0.13505 l -0.01447,0.0603 1.077971,-0.0289 q 0.159163,0.0458 0.188103,0.17363 h 0.05788 l 0.0097,-0.64147 -0.07717,0.0434 q -0.03376,0.32074 -0.221864,0.30145 -0.434083,0.0651 -0.434083,-0.0868 v -0.709 q 0.301448,-0.0772 0.366559,-0.0169 l 0.03376,0.3328 0.0627,0.0145 q 0,-0.51125 0.02894,-0.78134 l -0.07717,0.0193 -0.03135,0.25081 q -0.306268,0.0434 -0.349676,-0.0458 l -0.01688,-0.9791 0.923629,-0.0145 q 0.267684,-0.0193 0.238744,0.43649 z"
         style="font-style:normal;font-variant:normal;font-weight:normal;font-stretch:normal;font-size:medium;line-height:125%;font-family:Lumos;-inkscape-font-specification:'Lumos, Normal';font-variant-ligatures:normal;font-variant-caps:normal;font-variant-numeric:normal;font-feature-settings:normal;text-align:start;letter-spacing:1.10000002px;word-spacing:0px;writing-mode:lr-tb;text-anchor:start;fill:#000000;fill-opacity:1;stroke:none;stroke-width:0.26458332px;stroke-linecap:butt;stroke-linejoin:miter;stroke-opacity:1"
         id="path4564"
         inkscape:connector-curvature="0" />
      <path
         d="m 92.055226,212.07186 -0.08923,0.01 -0.06029,0.2291 q -1.008033,-0.19534 -1.475878,0.42444 -0.465433,0.61736 0.0217,1.36735 0.489548,0.74759 1.755619,0.20016 0.08923,-0.13746 -0.03135,-0.0916 -1.085205,0.47025 -1.379416,-0.38827 -0.291799,-0.86093 0.144695,-1.26125 0.436494,-0.40032 0.916395,-0.14228 0.122989,0.0434 0.122989,0.44373 l 0.07717,0.0772 q -0.0627,-0.57154 -0.0024,-0.86816 z"
         style="font-style:normal;font-variant:normal;font-weight:normal;font-stretch:normal;font-size:medium;line-height:125%;font-family:Lumos;-inkscape-font-specification:'Lumos, Normal';font-variant-ligatures:normal;font-variant-caps:normal;font-variant-numeric:normal;font-feature-settings:normal;text-align:start;letter-spacing:1.10000002px;word-spacing:0px;writing-mode:lr-tb;text-anchor:start;fill:#000000;fill-opacity:1;stroke:none;stroke-width:0.26458332px;stroke-linecap:butt;stroke-linejoin:miter;stroke-opacity:1"
         id="path4566"
         inkscape:connector-curvature="0" />
      <path
         d="m 94.005422,212.27202 q 0.894691,-0.10369 1.343244,0.25322 0.450961,0.3545 0.352087,0.81752 -0.09887,0.46302 -0.482312,0.81269 -0.381029,0.34727 -1.2299,0.30869 -0.84887,-0.0362 -1.044207,-0.64389 -0.192926,-0.61013 0.161573,-1.04421 0.356913,-0.43649 0.899515,-0.50402 z m -0.05064,0.16399 q -0.897104,0.15675 -0.916397,0.89228 -0.01688,0.73312 0.923631,0.92604 0.942922,0.19051 1.282954,-0.3545 0.342442,-0.54743 0.0217,-1.01286 -0.318328,-0.46784 -1.311891,-0.45096 z"
         style="font-style:normal;font-variant:normal;font-weight:normal;font-stretch:normal;font-size:medium;line-height:125%;font-family:Lumos;-inkscape-font-specification:'Lumos, Normal';font-variant-ligatures:normal;font-variant-caps:normal;font-variant-numeric:normal;font-feature-settings:normal;text-align:start;letter-spacing:1.10000002px;word-spacing:0px;writing-mode:lr-tb;text-anchor:start;fill:#000000;fill-opacity:1;stroke:none;stroke-width:0.26458332px;stroke-linecap:butt;stroke-linejoin:miter;stroke-opacity:1"
         id="path4568"
         inkscape:connector-curvature="0" />
      <path
         d="m 96.119609,212.32508 0.03617,0.0699 q 0.366559,0 0.405143,0.0675 l 0.02653,1.24919 q 0.233921,0.82958 0.991153,0.7934 0.757233,-0.0338 0.991156,-1.05144 l -0.06752,-0.99598 q 0.01929,-0.11575 0.250804,-0.0772 v -0.0965 h -0.771703 v 0.0965 q 0.289388,-0.0386 0.327972,0.13505 l 0.07717,0.87058 q -0.03858,0.95015 -0.658357,0.93086 -0.619773,-0.0217 -0.841637,-0.6463 l -0.02653,-1.1672 q 0,-0.16398 0.313502,-0.14951 l 0.06511,-0.082 z"
         style="font-style:normal;font-variant:normal;font-weight:normal;font-stretch:normal;font-size:medium;line-height:125%;font-family:Lumos;-inkscape-font-specification:'Lumos, Normal';font-variant-ligatures:normal;font-variant-caps:normal;font-variant-numeric:normal;font-feature-settings:normal;text-align:start;letter-spacing:1.10000002px;word-spacing:0px;writing-mode:lr-tb;text-anchor:start;fill:#000000;fill-opacity:1;stroke:none;stroke-width:0.26458332px;stroke-linecap:butt;stroke-linejoin:miter;stroke-opacity:1"
         id="path4570"
         inkscape:connector-curvature="0" />
      <path
         d="m 99.388936,212.2262 q 0.636654,0.0724 1.290184,0.0121 l -0.0145,0.0868 q -0.39308,0 -0.40755,0.11816 v 1.80626 q 0.0772,0.17605 0.39067,0.11576 0.39309,-0.11576 0.36415,-0.4799 l 0.13505,0.0193 q -0.15193,0.34485 -0.12058,1.06108 l -0.0965,-0.0603 q 0.0338,-0.34968 -0.0603,-0.42444 h -1.555455 l 0.02894,-0.0555 q 0.378616,-0.0169 0.487137,-0.17604 v -1.79179 q -0.04582,-0.14711 -0.376206,-0.13264 z"
         style="font-style:normal;font-variant:normal;font-weight:normal;font-stretch:normal;font-size:medium;line-height:125%;font-family:Lumos;-inkscape-font-specification:'Lumos, Normal';font-variant-ligatures:normal;font-variant-caps:normal;font-variant-numeric:normal;font-feature-settings:normal;text-align:start;letter-spacing:1.10000002px;word-spacing:0px;writing-mode:lr-tb;text-anchor:start;fill:#000000;fill-opacity:1;stroke:none;stroke-width:0.26458332px;stroke-linecap:butt;stroke-linejoin:miter;stroke-opacity:1"
         id="path4572"
         inkscape:connector-curvature="0" />
      <path
         d="m 102.55456,212.22138 h -0.84646 l 0.0241,0.0458 q 0.35933,0.0458 0.45097,0.13264 l -0.0145,1.83761 q -0.0651,0.11817 -0.44855,0.17846 l -0.0121,0.0482 0.98392,-0.0193 q 0.95739,-0.0169 1.46141,-0.40515 0.50643,-0.39067 0.25563,-1.13102 -0.2484,-0.74035 -1.8545,-0.6873 z m -0.19051,2.15353 q -0.11575,-0.0169 -0.0772,-0.27492 v -1.6881 q 0,-0.10852 0.0458,-0.1254 1.74839,-0.0989 1.72909,1.02009 -0.0169,1.11897 -1.69774,1.06833 z"
         style="font-style:normal;font-variant:normal;font-weight:normal;font-stretch:normal;font-size:medium;line-height:125%;font-family:Lumos;-inkscape-font-specification:'Lumos, Normal';font-variant-ligatures:normal;font-variant-caps:normal;font-variant-numeric:normal;font-feature-settings:normal;text-align:start;letter-spacing:1.10000002px;word-spacing:0px;writing-mode:lr-tb;text-anchor:start;fill:#000000;fill-opacity:1;stroke:none;stroke-width:0.26458332px;stroke-linecap:butt;stroke-linejoin:miter;stroke-opacity:1"
         id="path4574"
         inkscape:connector-curvature="0" />
      <path
         d="m 105.1173,212.27684 -0.0506,-0.0699 0.89951,0.0265 1.54341,1.67604 -0.0121,-1.41318 q -0.11575,-0.15434 -0.55948,-0.15434 l -0.0386,-0.0965 h 1.17684 l -0.0193,0.13504 q -0.34727,0 -0.40514,0.13505 l 0.0193,1.8135 q -0.0531,0.21222 -0.18087,0.082 l -1.87379,-2.01366 0.0579,1.94373 q 0.0579,0.0723 0.36415,0.0868 l 0.053,0.0482 h -0.9164 l 0.0651,-0.0482 q 0.20257,-0.0289 0.22669,-0.16398 l 0.041,-1.89549 q -0.0651,-0.1037 -0.39067,-0.0917 z"
         style="font-style:normal;font-variant:normal;font-weight:normal;font-stretch:normal;font-size:medium;line-height:125%;font-family:Lumos;-inkscape-font-specification:'Lumos, Normal';font-variant-ligatures:normal;font-variant-caps:normal;font-variant-numeric:normal;font-feature-settings:normal;text-align:start;letter-spacing:1.10000002px;word-spacing:0px;writing-mode:lr-tb;text-anchor:start;fill:#000000;fill-opacity:1;stroke:none;stroke-width:0.26458332px;stroke-linecap:butt;stroke-linejoin:miter;stroke-opacity:1"
         id="path4576"
         inkscape:connector-curvature="0" />
      <path
         d="m 108.70495,210.72139 v 0.59806 l 0.42444,0.0579 q 0.1254,0.11576 -0.0193,0.69453 l 0.0386,0.0965 0.19292,-0.67524 0.0386,-0.19293 v -0.57877 z"
         style="font-style:normal;font-variant:normal;font-weight:normal;font-stretch:normal;font-size:medium;line-height:125%;font-family:Lumos;-inkscape-font-specification:'Lumos, Normal';font-variant-ligatures:normal;font-variant-caps:normal;font-variant-numeric:normal;font-feature-settings:normal;text-align:start;letter-spacing:1.10000002px;word-spacing:0px;writing-mode:lr-tb;text-anchor:start;fill:#000000;fill-opacity:1;stroke:none;stroke-width:0.26458332px;stroke-linecap:butt;stroke-linejoin:miter;stroke-opacity:1"
         id="path4578"
         inkscape:connector-curvature="0" />
      <path
         d="m 109.92204,212.26479 h 0.0772 q -0.0772,0.14952 0.46543,0.16157 0.64389,0.0675 1.27572,0.0169 0.36173,0.0145 0.41961,-0.17845 l 0.0579,-0.0579 0.0193,0.87781 -0.0699,-0.0434 q -0.0265,-0.47025 -0.34727,-0.48231 -0.50401,-0.041 -0.51848,0.0651 v 1.62299 q 0.0675,0.15675 0.33279,0.13263 l 0.041,0.0844 h -1.17202 l 0.0265,-0.0603 q 0.32074,-0.0121 0.41238,-0.15675 v -1.61093 q -0.0386,-0.13023 -0.69212,-0.0772 -0.21222,-0.0265 -0.2508,0.47025 l -0.041,0.0241 q 0.0265,-0.55949 -0.0362,-0.78859 z"
         style="font-style:normal;font-variant:normal;font-weight:normal;font-stretch:normal;font-size:medium;line-height:125%;font-family:Lumos;-inkscape-font-specification:'Lumos, Normal';font-variant-ligatures:normal;font-variant-caps:normal;font-variant-numeric:normal;font-feature-settings:normal;text-align:start;letter-spacing:1.10000002px;word-spacing:0px;writing-mode:lr-tb;text-anchor:start;fill:#000000;fill-opacity:1;stroke:none;stroke-width:0.26458332px;stroke-linecap:butt;stroke-linejoin:miter;stroke-opacity:1"
         id="path4580"
         inkscape:connector-curvature="0" />
      <path
         d="m 116.51375,212.87974 q -0.0699,-0.48714 0.0193,-0.73071 h -0.15435 q 0.0579,0.21222 -0.18569,0.13264 l -1.66639,0.0121 0.041,0.0579 q 0.36414,0 0.39308,0.1881 l -0.0145,1.71704 q -0.0145,0.12781 -0.28697,0.12781 l -0.01,0.0603 h 0.97427 l -0.082,-0.11817 q -0.29421,0.0265 -0.29421,-0.11575 l 0.0289,-0.65595 q 0.26527,-0.0892 0.33038,-0.0314 l 0.0772,0.2074 0.0579,-0.0193 q -0.0362,-0.34485 -0.007,-0.54019 l -0.0627,-0.0338 -0.0482,0.2291 q -0.26768,0.053 -0.34726,-0.0434 l -0.0169,-0.93087 0.91639,-0.0121 q 0.26769,0 0.23633,0.41478 z"
         style="font-style:normal;font-variant:normal;font-weight:normal;font-stretch:normal;font-size:medium;line-height:125%;font-family:Lumos;-inkscape-font-specification:'Lumos, Normal';font-variant-ligatures:normal;font-variant-caps:normal;font-variant-numeric:normal;font-feature-settings:normal;text-align:start;letter-spacing:1.10000002px;word-spacing:0px;writing-mode:lr-tb;text-anchor:start;fill:#000000;fill-opacity:1;stroke:none;stroke-width:0.26458332px;stroke-linecap:butt;stroke-linejoin:miter;stroke-opacity:1"
         id="path4582"
         inkscape:connector-curvature="0" />
      <path
         d="m 118.03951,211.73907 q -0.10128,0.27492 -0.23151,0 0.10129,-0.22669 0.14469,-0.57396 0,0.46785 0.0868,0.57396 z m -0.45096,0.15192 q 0.12299,0.23875 -0.12299,0.22187 -0.10852,-0.13264 -0.50643,-0.2918 0.46061,0.13023 0.62942,0.0699 z m 0.62942,0.002 q 0.16881,0.0579 0.63183,-0.0724 -0.40032,0.16157 -0.50884,0.2918 -0.24357,0.0169 -0.12299,-0.21945 z m 0.005,0.45819 q 0.0482,0.27492 0.26045,0.56913 -0.24598,-0.27733 -0.47267,-0.40755 -0.0482,-0.30627 0.21222,-0.16158 z m -0.66318,0.005 q 0.26769,-0.1881 0.19534,0.14469 -0.19534,0.10129 -0.39067,0.36174 0.16639,-0.27492 0.19533,-0.50643 z m -0.32074,0.71864 q 0.63907,0.0434 1.29502,0.007 l -0.0169,0.0531 q -0.39309,0 -0.40997,0.0724 v 1.11173 q 0.0796,0.10611 0.3955,0.0868 l 0.0482,0.0579 h -1.38907 l 0.0314,-0.0386 q 0.37862,-0.01 0.48955,-0.10611 v -1.10209 q -0.0482,-0.0892 -0.38102,-0.082 z"
         style="font-style:normal;font-variant:normal;font-weight:normal;font-stretch:normal;font-size:medium;line-height:125%;font-family:Lumos;-inkscape-font-specification:'Lumos, Normal';font-variant-ligatures:normal;font-variant-caps:normal;font-variant-numeric:normal;font-feature-settings:normal;text-align:start;letter-spacing:1.10000002px;word-spacing:0px;writing-mode:lr-tb;text-anchor:start;fill:#000000;fill-opacity:1;stroke:none;stroke-width:0.26458332px;stroke-linecap:butt;stroke-linejoin:miter;stroke-opacity:1"
         id="path4584"
         inkscape:connector-curvature="0" />
      <path
         d="m 119.28794,212.27684 -0.0506,-0.0699 0.89952,0.0265 1.5434,1.67604 -0.0121,-1.41318 q -0.11575,-0.15434 -0.55948,-0.15434 l -0.0386,-0.0965 h 1.17685 l -0.0193,0.13504 q -0.34726,0 -0.40514,0.13505 l 0.0193,1.8135 q -0.0531,0.21222 -0.18087,0.082 l -1.87379,-2.01366 0.0579,1.94373 q 0.0579,0.0723 0.36415,0.0868 l 0.053,0.0482 h -0.9164 l 0.0651,-0.0482 q 0.20257,-0.0289 0.22668,-0.16398 l 0.041,-1.89549 q -0.0651,-0.1037 -0.39067,-0.0917 z"
         style="font-style:normal;font-variant:normal;font-weight:normal;font-stretch:normal;font-size:medium;line-height:125%;font-family:Lumos;-inkscape-font-specification:'Lumos, Normal';font-variant-ligatures:normal;font-variant-caps:normal;font-variant-numeric:normal;font-feature-settings:normal;text-align:start;letter-spacing:1.10000002px;word-spacing:0px;writing-mode:lr-tb;text-anchor:start;fill:#000000;fill-opacity:1;stroke:none;stroke-width:0.26458332px;stroke-linecap:butt;stroke-linejoin:miter;stroke-opacity:1"
         id="path4586"
         inkscape:connector-curvature="0" />
      <path
         d="m 123.7317,212.22138 h -0.84646 l 0.0241,0.0458 q 0.35933,0.0458 0.45097,0.13264 l -0.0145,1.83761 q -0.0651,0.11817 -0.44855,0.17846 l -0.0121,0.0482 0.98392,-0.0193 q 0.95739,-0.0169 1.46141,-0.40515 0.50643,-0.39067 0.25562,-1.13102 -0.24839,-0.74035 -1.85449,-0.6873 z m -0.19051,2.15353 q -0.11576,-0.0169 -0.0772,-0.27492 v -1.6881 q 0,-0.10852 0.0458,-0.1254 1.74838,-0.0989 1.72909,1.02009 -0.0169,1.11897 -1.69774,1.06833 z"
         style="font-style:normal;font-variant:normal;font-weight:normal;font-stretch:normal;font-size:medium;line-height:125%;font-family:Lumos;-inkscape-font-specification:'Lumos, Normal';font-variant-ligatures:normal;font-variant-caps:normal;font-variant-numeric:normal;font-feature-settings:normal;text-align:start;letter-spacing:1.10000002px;word-spacing:0px;writing-mode:lr-tb;text-anchor:start;fill:#000000;fill-opacity:1;stroke:none;stroke-width:0.26458332px;stroke-linecap:butt;stroke-linejoin:miter;stroke-opacity:1"
         id="path4588"
         inkscape:connector-curvature="0" />
      <path
         d="m 127.93355,212.26479 h 0.0772 q -0.0772,0.14952 0.46543,0.16157 0.64389,0.0675 1.27572,0.0169 0.36174,0.0145 0.41961,-0.17845 l 0.0579,-0.0579 0.0193,0.87781 -0.0699,-0.0434 q -0.0265,-0.47025 -0.34726,-0.48231 -0.50402,-0.041 -0.51849,0.0651 v 1.62299 q 0.0675,0.15675 0.3328,0.13263 l 0.041,0.0844 h -1.17202 l 0.0265,-0.0603 q 0.32074,-0.0121 0.41238,-0.15675 v -1.61093 q -0.0386,-0.13023 -0.69212,-0.0772 -0.21222,-0.0265 -0.2508,0.47025 l -0.041,0.0241 q 0.0265,-0.55949 -0.0362,-0.78859 z"
         style="font-style:normal;font-variant:normal;font-weight:normal;font-stretch:normal;font-size:medium;line-height:125%;font-family:Lumos;-inkscape-font-specification:'Lumos, Normal';font-variant-ligatures:normal;font-variant-caps:normal;font-variant-numeric:normal;font-feature-settings:normal;text-align:start;letter-spacing:1.10000002px;word-spacing:0px;writing-mode:lr-tb;text-anchor:start;fill:#000000;fill-opacity:1;stroke:none;stroke-width:0.26458332px;stroke-linecap:butt;stroke-linejoin:miter;stroke-opacity:1"
         id="path4590"
         inkscape:connector-curvature="0" />
      <path
         d="m 130.78085,212.26479 q 0.48232,0 0.9791,0 l -0.0145,0.0892 q -0.33761,0 -0.3135,0.14228 v 0.64147 l 1.25402,0.0145 -0.0338,-0.63666 q -0.0386,-0.21221 -0.34727,-0.15434 l -0.0386,-0.11575 h 0.88746 l -0.0386,0.13505 q -0.28939,-0.0579 -0.28939,0.0965 l 0.0579,1.88102 q 0.0772,0.0892 0.3762,0.0892 l 0.0289,0.0579 -1.00804,0.0169 0.0145,-0.0748 q 0.36655,0 0.41479,-0.10129 l -0.0241,-1.01768 -0.0772,-0.0434 -1.16237,0.0265 0.01,0.94775 q 0.0145,0.14469 0.27492,0.15916 v 0.0579 l -0.88745,-0.0145 -0.0145,-0.0434 q 0.22187,0 0.27492,-0.10369 l -0.01,-1.81833 q -0.0675,-0.13022 -0.26527,-0.15916 z"
         style="font-style:normal;font-variant:normal;font-weight:normal;font-stretch:normal;font-size:medium;line-height:125%;font-family:Lumos;-inkscape-font-specification:'Lumos, Normal';font-variant-ligatures:normal;font-variant-caps:normal;font-variant-numeric:normal;font-feature-settings:normal;text-align:start;letter-spacing:1.10000002px;word-spacing:0px;writing-mode:lr-tb;text-anchor:start;fill:#000000;fill-opacity:1;stroke:none;stroke-width:0.26458332px;stroke-linecap:butt;stroke-linejoin:miter;stroke-opacity:1"
         id="path4592"
         inkscape:connector-curvature="0" />
      <path
         d="m 133.67398,214.44484 -0.0121,-0.0458 q 0.2701,-0.0289 0.34968,-0.13504 l 0.72588,-1.82556 q -0.0241,-0.18087 -0.42443,-0.0965 l 0.0362,-0.0965 h 1.32877 l -0.0724,0.11575 q -0.32556,-0.1037 -0.34244,0.0748 l 0.60772,1.77732 q 0.0627,0.13505 0.27492,0.13505 l 0.0579,0.0965 q -0.5016,-0.0193 -0.95016,0.0386 v -0.0965 q 0.2701,0.0193 0.28939,-0.19293 l -0.24597,-0.55225 q -0.13988,-0.0313 -0.90434,0.0289 l -0.19775,0.61254 q 0.10611,0.0699 0.36656,0.0699 l 0.0145,0.0916 z m 1.60851,-0.96462 -0.30627,-0.82235 q -0.0386,-0.007 -0.12781,0.0675 l -0.27974,0.69694 q 0.58601,0.0458 0.71382,0.0579 z"
         style="font-style:normal;font-variant:normal;font-weight:normal;font-stretch:normal;font-size:medium;line-height:125%;font-family:Lumos;-inkscape-font-specification:'Lumos, Normal';font-variant-ligatures:normal;font-variant-caps:normal;font-variant-numeric:normal;font-feature-settings:normal;text-align:start;letter-spacing:1.10000002px;word-spacing:0px;writing-mode:lr-tb;text-anchor:start;fill:#000000;fill-opacity:1;stroke:none;stroke-width:0.26458332px;stroke-linecap:butt;stroke-linejoin:miter;stroke-opacity:1"
         id="path4594"
         inkscape:connector-curvature="0" />
      <path
         d="m 136.62015,212.26479 h 0.0772 q -0.0772,0.14952 0.46543,0.16157 0.64389,0.0675 1.27572,0.0169 0.36174,0.0145 0.41962,-0.17845 l 0.0579,-0.0579 0.0193,0.87781 -0.0699,-0.0434 q -0.0265,-0.47025 -0.34727,-0.48231 -0.50401,-0.041 -0.51848,0.0651 v 1.62299 q 0.0675,0.15675 0.33279,0.13263 l 0.041,0.0844 h -1.17202 l 0.0265,-0.0603 q 0.32073,-0.0121 0.41237,-0.15675 v -1.61093 q -0.0386,-0.13023 -0.69212,-0.0772 -0.21222,-0.0265 -0.2508,0.47025 l -0.041,0.0241 q 0.0265,-0.55949 -0.0362,-0.78859 z"
         style="font-style:normal;font-variant:normal;font-weight:normal;font-stretch:normal;font-size:medium;line-height:125%;font-family:Lumos;-inkscape-font-specification:'Lumos, Normal';font-variant-ligatures:normal;font-variant-caps:normal;font-variant-numeric:normal;font-feature-settings:normal;text-align:start;letter-spacing:1.10000002px;word-spacing:0px;writing-mode:lr-tb;text-anchor:start;fill:#000000;fill-opacity:1;stroke:none;stroke-width:0.26458332px;stroke-linecap:butt;stroke-linejoin:miter;stroke-opacity:1"
         id="path4596"
         inkscape:connector-curvature="0" />
      <path
         d="m 141.16685,212.25755 q 0.64147,0.0724 1.9606,0 0.89469,0.22669 0.71141,0.92363 -0.18328,0.69695 -1.37941,0.68248 -0.082,-0.0289 -0.0506,-0.0844 1.19614,-0.0699 1.06833,-0.80064 -0.12781,-0.73311 -1.22749,-0.60048 -0.19051,-0.0217 -0.20739,0.0916 v 1.76527 q 0.0338,0.18328 0.4172,0.16881 l 0.0314,0.0603 h -1.40112 l 0.0289,-0.0603 q 0.3979,0.0289 0.49437,-0.16881 v -1.7508 q -0.0482,-0.14228 -0.38103,-0.12781 z"
         style="font-style:normal;font-variant:normal;font-weight:normal;font-stretch:normal;font-size:medium;line-height:125%;font-family:Lumos;-inkscape-font-specification:'Lumos, Normal';font-variant-ligatures:normal;font-variant-caps:normal;font-variant-numeric:normal;font-feature-settings:normal;text-align:start;letter-spacing:1.10000002px;word-spacing:0px;writing-mode:lr-tb;text-anchor:start;fill:#000000;fill-opacity:1;stroke:none;stroke-width:0.26458332px;stroke-linecap:butt;stroke-linejoin:miter;stroke-opacity:1"
         id="path4598"
         inkscape:connector-curvature="0" />
      <path
         d="m 144.2336,214.44484 -0.0121,-0.0458 q 0.27009,-0.0289 0.34967,-0.13504 l 0.72589,-1.82556 q -0.0241,-0.18087 -0.42444,-0.0965 l 0.0362,-0.0965 h 1.32878 l -0.0724,0.11575 q -0.32556,-0.1037 -0.34244,0.0748 l 0.60771,1.77732 q 0.0627,0.13505 0.27492,0.13505 l 0.0579,0.0965 q -0.50161,-0.0193 -0.95016,0.0386 v -0.0965 q 0.2701,0.0193 0.28939,-0.19293 l -0.24598,-0.55225 q -0.13987,-0.0313 -0.90434,0.0289 l -0.19775,0.61254 q 0.10611,0.0699 0.36656,0.0699 l 0.0145,0.0916 z m 1.60852,-0.96462 -0.30627,-0.82235 q -0.0386,-0.007 -0.12781,0.0675 l -0.27975,0.69694 q 0.58602,0.0458 0.71383,0.0579 z"
         style="font-style:normal;font-variant:normal;font-weight:normal;font-stretch:normal;font-size:medium;line-height:125%;font-family:Lumos;-inkscape-font-specification:'Lumos, Normal';font-variant-ligatures:normal;font-variant-caps:normal;font-variant-numeric:normal;font-feature-settings:normal;text-align:start;letter-spacing:1.10000002px;word-spacing:0px;writing-mode:lr-tb;text-anchor:start;fill:#000000;fill-opacity:1;stroke:none;stroke-width:0.26458332px;stroke-linecap:butt;stroke-linejoin:miter;stroke-opacity:1"
         id="path4600"
         inkscape:connector-curvature="0" />
      <path
         d="m 149.37913,212.39984 h -0.0965 l -0.0241,0.15916 q -0.47508,-0.3762 -1.19373,-0.20981 -0.71624,0.1664 -0.80064,0.92122 -0.0844,0.75241 0.35209,1.03215 0.43649,0.27974 1.3963,0.31592 l -0.0145,-0.6873 q 0.0434,-0.15675 0.30144,-0.14228 l 0.0579,-0.0699 h -0.94533 l 0.0555,0.11335 q 0.4172,-0.0844 0.4172,0.33279 v 0.30386 q -0.9188,0.0289 -1.16961,-0.51849 -0.2508,-0.54983 0.0989,-1.21302 0.35209,-0.66559 1.3143,-0.1061 0.15675,0.0892 0.21222,0.42443 l 0.0772,0.0386 z"
         style="font-style:normal;font-variant:normal;font-weight:normal;font-stretch:normal;font-size:medium;line-height:125%;font-family:Lumos;-inkscape-font-specification:'Lumos, Normal';font-variant-ligatures:normal;font-variant-caps:normal;font-variant-numeric:normal;font-feature-settings:normal;text-align:start;letter-spacing:1.10000002px;word-spacing:0px;writing-mode:lr-tb;text-anchor:start;fill:#000000;fill-opacity:1;stroke:none;stroke-width:0.26458332px;stroke-linecap:butt;stroke-linejoin:miter;stroke-opacity:1"
         id="path4602"
         inkscape:connector-curvature="0" />
      <path
         d="m 151.93222,212.85562 -0.0338,-0.80305 h -0.0965 q 0.0193,0.19534 -0.17363,0.18087 l -1.67845,0.0217 0.0386,0.0555 q 0.28939,0.0338 0.38344,0.0916 v 1.91478 q -0.0169,0.13505 -0.28457,0.13505 l -0.0145,0.0603 1.07797,-0.0289 q 0.15917,0.0458 0.1881,0.17363 h 0.0579 l 0.01,-0.64147 -0.0772,0.0434 q -0.0338,0.32074 -0.22187,0.30145 -0.43408,0.0651 -0.43408,-0.0868 v -0.709 q 0.30145,-0.0772 0.36656,-0.0169 l 0.0338,0.3328 0.0627,0.0145 q 0,-0.51125 0.0289,-0.78134 l -0.0772,0.0193 -0.0314,0.25081 q -0.30627,0.0434 -0.34968,-0.0458 l -0.0169,-0.9791 0.92363,-0.0145 q 0.26769,-0.0193 0.23875,0.43649 z"
         style="font-style:normal;font-variant:normal;font-weight:normal;font-stretch:normal;font-size:medium;line-height:125%;font-family:Lumos;-inkscape-font-specification:'Lumos, Normal';font-variant-ligatures:normal;font-variant-caps:normal;font-variant-numeric:normal;font-feature-settings:normal;text-align:start;letter-spacing:1.10000002px;word-spacing:0px;writing-mode:lr-tb;text-anchor:start;fill:#000000;fill-opacity:1;stroke:none;stroke-width:0.26458332px;stroke-linecap:butt;stroke-linejoin:miter;stroke-opacity:1"
         id="path4604"
         inkscape:connector-curvature="0" />
      <path
         d="m 152.84544,213.84678 v 0.59806 h 0.67524 v -0.59806 z"
         style="font-style:normal;font-variant:normal;font-weight:normal;font-stretch:normal;font-size:medium;line-height:125%;font-family:Lumos;-inkscape-font-specification:'Lumos, Normal';font-variant-ligatures:normal;font-variant-caps:normal;font-variant-numeric:normal;font-feature-settings:normal;text-align:start;letter-spacing:1.10000002px;word-spacing:0px;writing-mode:lr-tb;text-anchor:start;fill:#000000;fill-opacity:1;stroke:none;stroke-width:0.26458332px;stroke-linecap:butt;stroke-linejoin:miter;stroke-opacity:1"
         id="path4606"
         inkscape:connector-curvature="0" />
      <g
         transform="matrix(0.21159242,0,0,0.21159242,80.620632,151.89605)"
         id="g4690">
        <path
           style="fill:none;stroke:#000000;stroke-width:4.63507652;stroke-linecap:round;stroke-miterlimit:10"
           id="path1874-1"
           inkscape:randomized="0"
           inkscape:rounded="0"
           inkscape:flatsided="true"
           sodipodi:r1="71.958565"
           sodipodi:arg2="1.5707963"
           sodipodi:sides="3"
           sodipodi:type="star"
           sodipodi:r2="35.979282"
           sodipodi:arg1="0.52359878"
           sodipodi:cy="203.16957"
           sodipodi:cx="125.34274"
           stroke-miterlimit="10"
           d="m 187.66069,239.14885 -124.635892,0 62.317942,-107.93784 z" />
        <circle
           style="fill:none;stroke:#000000;stroke-width:5.23448992;stroke-linecap:round;stroke-linejoin:round;stroke-miterlimit:10"
           r="35.907738"
           cy="202.94141"
           cx="125.34274"
           id="path2762-8"
           stroke-miterlimit="10" />
        <path
           style="fill:none;stroke:#000000;stroke-width:4.65008545;stroke-linecap:round;stroke-linejoin:miter;stroke-miterlimit:10;stroke-dasharray:none"
           inkscape:connector-curvature="0"
           id="path2764-3"
           stroke-miterlimit="10"
           d="M 125.34274,131.21101 V 239.28639" />
      </g>
    </g>
  </g>
</svg>
