<?xml version="1.0" encoding="UTF-8" standalone="no"?>
<!-- Created with Inkscape (http://www.inkscape.org/) -->

<svg
   xmlns:dc="http://purl.org/dc/elements/1.1/"
   xmlns:cc="http://creativecommons.org/ns#"
   xmlns:rdf="http://www.w3.org/1999/02/22-rdf-syntax-ns#"
   xmlns:svg="http://www.w3.org/2000/svg"
   xmlns="http://www.w3.org/2000/svg"
   xmlns:sodipodi="http://sodipodi.sourceforge.net/DTD/sodipodi-0.dtd"
   xmlns:inkscape="http://www.inkscape.org/namespaces/inkscape"
   width="92.832359mm"
   height="39.170464mm"
   viewBox="0 0 92.832359 39.170464"
   version="1.1"
   id="svg8"
   inkscape:version="0.92.3 (2405546, 2018-03-11)"
   sodipodi:docname="404_1.svg">
  <defs
     id="defs2">
	
		
	
		
	
		
</defs>
  <sodipodi:namedview
     id="base"
     pagecolor="#ffffff"
     bordercolor="#666666"
     borderopacity="1.0"
     inkscape:pageopacity="0.0"
     inkscape:pageshadow="2"
     inkscape:zoom="0.95901357"
     inkscape:cx="129.63227"
     inkscape:cy="-73.939989"
     inkscape:document-units="mm"
     inkscape:current-layer="layer1"
     showgrid="false"
     inkscape:object-paths="false"
     inkscape:snap-intersection-paths="true"
     inkscape:snap-smooth-nodes="true"
     inkscape:lockguides="true"
     inkscape:window-width="1600"
     inkscape:window-height="837"
     inkscape:window-x="-8"
     inkscape:window-y="-8"
     inkscape:window-maximized="1"
     fit-margin-top="0"
     fit-margin-left="0"
     fit-margin-right="0"
     fit-margin-bottom="0" />
  <metadata
     id="metadata5">
    <rdf:RDF>
      <cc:Work
         rdf:about="">
        <dc:format>image/svg+xml</dc:format>
        <dc:type
           rdf:resource="http://purl.org/dc/dcmitype/StillImage" />
        <dc:title></dc:title>
      </cc:Work>
    </rdf:RDF>
  </metadata>
  <g
     inkscape:label="Layer 1"
     inkscape:groupmode="layer"
     id="layer1"
     transform="translate(-60.298153,-98.089517)">
    <g
       id="g4724">
      <path
         sodipodi:nodetypes="ccccccccccccccccccccccccc"
         d="m 81.491069,98.089517 c -5.240904,6.750993 -10.570629,12.480443 -15.989175,17.188363 -0.532973,1.06595 -0.266486,1.51009 0.799459,1.33244 l 11.325654,-0.39973 h 0.932707 v 6.26242 l 0.133213,1.33244 c 0,0.97711 -2.709279,1.24359 -8.127837,0.79946 l -0.666209,0.93269 h 18.787281 l -0.39973,-0.79946 c -3.464321,0.35531 -5.418558,0.0444 -5.862709,-0.93269 l -0.266481,-7.32838 h 4.530273 c 0.266486,0.17765 0.399729,1.42126 0.399729,3.73081 l 1.199188,0.39973 c -0.444152,-3.46432 -0.266498,-8.039 0.532961,-13.72405 l -1.065939,-0.26648 c -0.177654,4.97441 -0.6218,7.50603 -1.332438,7.59486 l -4.530254,-0.39973 z m -2.798105,16.122423 -10.259733,0.66621 c 4.885585,-6.4845 8.349907,-10.34855 10.392964,-11.59215 z"
         style="font-style:normal;font-variant:normal;font-weight:normal;font-stretch:normal;font-size:medium;line-height:125%;font-family:Lumos;-inkscape-font-specification:'Lumos, Normal';font-variant-ligatures:normal;font-variant-caps:normal;font-variant-numeric:normal;font-feature-settings:normal;text-align:start;letter-spacing:1.10000002px;word-spacing:0px;writing-mode:lr-tb;text-anchor:start;fill:#000000;fill-opacity:1;stroke:none;stroke-width:0.26458332px;stroke-linecap:butt;stroke-linejoin:miter;stroke-opacity:1"
         id="path4675"
         inkscape:connector-curvature="0" />
      <path
         d="m 103.88734,102.66975 q 9.19377,-0.84942 13.79065,2.03196 4.5969,2.86473 3.59756,6.59554 -0.99931,3.7308 -4.92998,6.5289 -3.93069,2.78146 -12.65811,2.49832 -8.72742,-0.2998 -10.726067,-5.17984 -1.998647,-4.89667 1.665542,-8.39432 3.664189,-3.51427 9.260405,-4.08056 z m 0,1.21585 q -8.527571,1.31577 -8.727426,7.49492 -0.199874,6.16249 8.727426,7.36168 8.92727,1.19918 12.25836,-2.99797 3.33108,-4.19716 0.19987,-8.06121 -3.13123,-3.86404 -12.45823,-3.79742 z m -1.59892,20.18633 q 1.19919,-1.8654 4.06392,-1.06594 2.86471,0.79946 5.12985,0 v 0.79946 q -2.26514,1.19918 -4.59689,0.3331 -2.33176,-0.86608 -3.53094,0.33311 z"
         style="font-style:normal;font-variant:normal;font-weight:normal;font-stretch:normal;font-size:medium;line-height:125%;font-family:Lumos;-inkscape-font-specification:'Lumos, Normal';font-variant-ligatures:normal;font-variant-caps:normal;font-variant-numeric:normal;font-feature-settings:normal;text-align:start;letter-spacing:1.10000002px;word-spacing:0px;writing-mode:lr-tb;text-anchor:start;fill:#000000;fill-opacity:1;stroke:none;stroke-width:0.26458332px;stroke-linecap:butt;stroke-linejoin:miter;stroke-opacity:1"
         id="path4677"
         inkscape:connector-curvature="0" />
      <path
         d="M 140.94034,98.089517 Q 133.079,108.216 124.95116,115.27788 q -0.79945,1.59892 0.79946,1.33244 l 11.32567,-0.39973 h 0.93269 v 6.26242 l 0.13322,1.33244 q 0,1.46566 -8.12784,0.79946 l -0.66621,0.93269 h 18.78728 l -0.39973,-0.79946 q -5.19648,0.53297 -5.86269,-0.93269 l -0.2665,-7.32838 h 4.53027 q 0.39973,0.26648 0.39973,3.73081 l 1.19919,0.39973 q -0.66621,-5.19648 0.53298,-13.72405 l -1.06596,-0.26648 q -0.26648,7.46161 -1.33242,7.59486 l -4.53027,-0.39973 z m -2.79811,16.122423 -10.25971,0.66621 q 7.32836,-9.72675 10.39296,-11.59215 z"
         style="font-style:normal;font-variant:normal;font-weight:normal;font-stretch:normal;font-size:medium;line-height:125%;font-family:Lumos;-inkscape-font-specification:'Lumos, Normal';font-variant-ligatures:normal;font-variant-caps:normal;font-variant-numeric:normal;font-feature-settings:normal;text-align:start;letter-spacing:1.10000002px;word-spacing:0px;writing-mode:lr-tb;text-anchor:start;fill:#000000;fill-opacity:1;stroke:none;stroke-width:0.26458332px;stroke-linecap:butt;stroke-linejoin:miter;stroke-opacity:1"
         id="path4679"
         inkscape:connector-curvature="0" />
      <path
         d="m 62.150233,134.4625 -0.07717,-0.0579 q -0.01929,-0.81029 -0.250804,-0.84887 -0.771702,-0.21222 -0.983919,0.30868 -0.212217,0.5209 0.684884,0.68488 0.897104,0.16399 0.887458,1.03215 -0.0097,0.86817 -0.80064,0.96463 -0.790996,0.0965 -1.06109,-0.28939 -0.135049,0 -0.135049,0.55948 l -0.09646,0.0772 q 0.07717,-0.82958 -0.01929,-1.69774 l 0.09647,0.0579 q 0.03858,0.71382 0.385849,0.99356 0.347266,0.27974 0.790993,0.0965 0.443731,-0.18328 0.376206,-0.71383 -0.06752,-0.53054 -0.819933,-0.66559 -0.752409,-0.13505 -0.627007,-0.90675 0.125402,-0.7717 1.244367,-0.73312 0.289388,0.17364 0.366559,-0.40514 l 0.07717,-0.0386 q -0.154342,0.75241 -0.03859,1.58198 z"
         style="font-style:normal;font-variant:normal;font-weight:normal;font-stretch:normal;font-size:medium;line-height:125%;font-family:Lumos;-inkscape-font-specification:'Lumos, Normal';font-variant-ligatures:normal;font-variant-caps:normal;font-variant-numeric:normal;font-feature-settings:normal;text-align:start;letter-spacing:1.10000002px;word-spacing:0px;writing-mode:lr-tb;text-anchor:start;fill:#000000;fill-opacity:1;stroke:none;stroke-width:0.26458332px;stroke-linecap:butt;stroke-linejoin:miter;stroke-opacity:1"
         id="path4616"
         inkscape:connector-curvature="0" />
      <path
         d="m 64.293358,134.23823 q 0.894691,-0.1037 1.343245,0.25321 0.450961,0.3545 0.352086,0.81752 -0.09887,0.46302 -0.482312,0.8127 -0.381029,0.34727 -1.229899,0.30868 -0.848871,-0.0362 -1.044207,-0.64389 -0.192927,-0.61012 0.161573,-1.04421 0.356912,-0.43649 0.899514,-0.50401 z m -0.05064,0.16399 q -0.897104,0.15675 -0.916398,0.89227 -0.01688,0.73312 0.923632,0.92605 0.942922,0.19051 1.282954,-0.3545 0.342442,-0.54743 0.02169,-1.01286 -0.318328,-0.46784 -1.311891,-0.45096 z"
         style="font-style:normal;font-variant:normal;font-weight:normal;font-stretch:normal;font-size:medium;line-height:125%;font-family:Lumos;-inkscape-font-specification:'Lumos, Normal';font-variant-ligatures:normal;font-variant-caps:normal;font-variant-numeric:normal;font-feature-settings:normal;text-align:start;letter-spacing:1.10000002px;word-spacing:0px;writing-mode:lr-tb;text-anchor:start;fill:#000000;fill-opacity:1;stroke:none;stroke-width:0.26458332px;stroke-linecap:butt;stroke-linejoin:miter;stroke-opacity:1"
         id="path4618"
         inkscape:connector-curvature="0" />
      <path
         d="m 66.523301,134.15382 q 0.557072,0.0699 1.661567,0.0121 0.817523,0.20257 0.696945,0.78858 -0.118169,0.58601 -0.865754,0.77412 l 0.561895,0.48954 q 0.115756,0.0386 0.327975,0.0579 l 0.01929,0.13505 h -0.964625 l 0.01929,-0.0965 0.173633,-0.0579 -0.39791,-0.42444 q -0.139872,-0.0892 -0.01447,-0.1471 0.870577,-0.26286 0.747586,-0.8537 -0.122989,-0.59083 -1.024917,-0.55707 -0.166396,-0.0193 -0.180866,0.0941 v 1.8135 q 0.02894,0.19051 0.361736,0.17604 l 0.02653,0.0579 h -1.21543 l 0.02653,-0.0579 q 0.344853,0.0289 0.42926,-0.17604 v -1.79662 q -0.04341,-0.14469 -0.332798,-0.13022 z"
         style="font-style:normal;font-variant:normal;font-weight:normal;font-stretch:normal;font-size:medium;line-height:125%;font-family:Lumos;-inkscape-font-specification:'Lumos, Normal';font-variant-ligatures:normal;font-variant-caps:normal;font-variant-numeric:normal;font-feature-settings:normal;text-align:start;letter-spacing:1.10000002px;word-spacing:0px;writing-mode:lr-tb;text-anchor:start;fill:#000000;fill-opacity:1;stroke:none;stroke-width:0.26458332px;stroke-linecap:butt;stroke-linejoin:miter;stroke-opacity:1"
         id="path4620"
         inkscape:connector-curvature="0" />
      <path
         d="m 69.515296,134.15382 q 0.557073,0.0699 1.661571,0.0121 0.81752,0.20257 0.696941,0.78858 -0.118165,0.58601 -0.865754,0.77412 l 0.561896,0.48954 q 0.115755,0.0386 0.327975,0.0579 l 0.01929,0.13505 h -0.964626 l 0.01929,-0.0965 0.173633,-0.0579 -0.397909,-0.42444 q -0.139872,-0.0892 -0.01447,-0.1471 0.870577,-0.26286 0.747585,-0.8537 -0.122989,-0.59083 -1.024913,-0.55707 -0.166399,-0.0193 -0.18087,0.0941 v 1.8135 q 0.02894,0.19051 0.361736,0.17604 l 0.02653,0.0579 h -1.215429 l 0.02653,-0.0579 q 0.344855,0.0289 0.42926,-0.17604 v -1.79662 q -0.04341,-0.14469 -0.332799,-0.13022 z"
         style="font-style:normal;font-variant:normal;font-weight:normal;font-stretch:normal;font-size:medium;line-height:125%;font-family:Lumos;-inkscape-font-specification:'Lumos, Normal';font-variant-ligatures:normal;font-variant-caps:normal;font-variant-numeric:normal;font-feature-settings:normal;text-align:start;letter-spacing:1.10000002px;word-spacing:0px;writing-mode:lr-tb;text-anchor:start;fill:#000000;fill-opacity:1;stroke:none;stroke-width:0.26458332px;stroke-linecap:butt;stroke-linejoin:miter;stroke-opacity:1"
         id="path4622"
         inkscape:connector-curvature="0" />
      <path
         d="m 75.425289,134.37328 -0.872987,1.12861 -0.108522,0.22669 0.01206,0.55707 q 0.09646,0.0892 0.352086,0.0892 l 0.02653,0.0651 h -1.18408 l 0.01688,-0.0651 q 0.294211,-0.0241 0.335206,-0.0651 v -0.69453 l -0.964626,-1.26848 q -0.07717,-0.0772 -0.41479,-0.0675 l -0.106109,-0.0772 q 0.540192,0 1.21543,0 l -0.02894,0.0579 q -0.241157,-0.0193 -0.221867,0.0579 l 0.906751,1.19614 0.889868,-1.14067 q 0.01688,-0.11335 -0.388263,-0.1037 l -0.01929,-0.0579 h 0.945335 l -0.04823,0.0675 q -0.274918,0.005 -0.342442,0.0941 z"
         style="font-style:normal;font-variant:normal;font-weight:normal;font-stretch:normal;font-size:medium;line-height:125%;font-family:Lumos;-inkscape-font-specification:'Lumos, Normal';font-variant-ligatures:normal;font-variant-caps:normal;font-variant-numeric:normal;font-feature-settings:normal;text-align:start;letter-spacing:1.10000002px;word-spacing:0px;writing-mode:lr-tb;text-anchor:start;fill:#000000;fill-opacity:1;stroke:none;stroke-width:0.26458332px;stroke-linecap:butt;stroke-linejoin:miter;stroke-opacity:1"
         id="path4624"
         inkscape:connector-curvature="0" />
      <path
         d="m 76.705073,135.81298 v 0.59807 l 0.424434,0.0579 q 0.135049,0.15434 -0.01929,0.69453 l 0.03858,0.0965 0.192927,-0.67524 0.03858,-0.19292 v -0.57878 z"
         style="font-style:normal;font-variant:normal;font-weight:normal;font-stretch:normal;font-size:medium;line-height:125%;font-family:Lumos;-inkscape-font-specification:'Lumos, Normal';font-variant-ligatures:normal;font-variant-caps:normal;font-variant-numeric:normal;font-feature-settings:normal;text-align:start;letter-spacing:1.10000002px;word-spacing:0px;writing-mode:lr-tb;text-anchor:start;fill:#000000;fill-opacity:1;stroke:none;stroke-width:0.26458332px;stroke-linecap:butt;stroke-linejoin:miter;stroke-opacity:1"
         id="path4626"
         inkscape:connector-curvature="0" />
      <path
         d="m 82.264628,134.71331 -0.658358,1.75321 q -0.115755,0.2725 -0.24598,0 l -0.880221,-1.9172 -0.03858,-0.0724 q -0.03617,-0.1664 -0.42926,-0.15434 l -0.04823,-0.0723 h 1.215429 l -0.03617,0.0603 q -0.318326,0 -0.291799,0.11094 l 0.725882,1.74838 0.532955,-1.418 0.07717,-0.19292 0.01929,-0.11576 q -0.135046,-0.11575 -0.327973,-0.0965 l -0.03858,-0.11576 h 1.00321 l -0.01929,0.15435 q -0.308681,-0.0386 -0.270097,0.21221 l 0.916395,1.60128 0.991155,-1.79179 q 0,-0.1447 -0.342442,-0.11335 l -0.03376,-0.0723 0.901927,0.0145 -0.05064,0.0699 q -0.23392,0.0289 -0.313502,0.13264 l -1.080383,2.02089 q -0.144693,0.27975 -0.299035,0 z"
         style="font-style:normal;font-variant:normal;font-weight:normal;font-stretch:normal;font-size:medium;line-height:125%;font-family:Lumos;-inkscape-font-specification:'Lumos, Normal';font-variant-ligatures:normal;font-variant-caps:normal;font-variant-numeric:normal;font-feature-settings:normal;text-align:start;letter-spacing:1.10000002px;word-spacing:0px;writing-mode:lr-tb;text-anchor:start;fill:#000000;fill-opacity:1;stroke:none;stroke-width:0.26458332px;stroke-linecap:butt;stroke-linejoin:miter;stroke-opacity:1"
         id="path4628"
         inkscape:connector-curvature="0" />
      <path
         d="m 87.528323,134.82183 -0.03376,-0.80305 h -0.09646 q 0.01929,0.19533 -0.173632,0.18086 l -1.678451,0.0217 0.03858,0.0555 q 0.289388,0.0338 0.38344,0.0916 v 1.91479 q -0.01688,0.13505 -0.284565,0.13505 l -0.01447,0.0603 1.077971,-0.0289 q 0.159163,0.0458 0.188103,0.17363 h 0.05788 l 0.0097,-0.64148 -0.07717,0.0434 q -0.03376,0.32074 -0.221864,0.30145 -0.434083,0.0651 -0.434083,-0.0868 v -0.709 q 0.301448,-0.0772 0.366559,-0.0169 l 0.03376,0.33279 0.0627,0.0145 q 0,-0.51125 0.02894,-0.78135 l -0.07717,0.0193 -0.03135,0.2508 q -0.306268,0.0434 -0.349676,-0.0458 l -0.01688,-0.97909 0.923629,-0.0145 q 0.267684,-0.0193 0.238744,0.4365 z"
         style="font-style:normal;font-variant:normal;font-weight:normal;font-stretch:normal;font-size:medium;line-height:125%;font-family:Lumos;-inkscape-font-specification:'Lumos, Normal';font-variant-ligatures:normal;font-variant-caps:normal;font-variant-numeric:normal;font-feature-settings:normal;text-align:start;letter-spacing:1.10000002px;word-spacing:0px;writing-mode:lr-tb;text-anchor:start;fill:#000000;fill-opacity:1;stroke:none;stroke-width:0.26458332px;stroke-linecap:butt;stroke-linejoin:miter;stroke-opacity:1"
         id="path4630"
         inkscape:connector-curvature="0" />
      <path
         d="m 91.665057,134.03807 -0.08923,0.01 -0.06029,0.2291 q -1.008033,-0.19534 -1.475878,0.42443 -0.465433,0.61736 0.0217,1.36736 0.489548,0.74759 1.755619,0.20016 0.08923,-0.13746 -0.03135,-0.0916 -1.085205,0.47026 -1.379416,-0.38826 -0.291799,-0.86093 0.144695,-1.26125 0.436494,-0.40032 0.916395,-0.14228 0.122989,0.0434 0.122989,0.44373 l 0.07717,0.0772 q -0.0627,-0.57155 -0.0024,-0.86817 z"
         style="font-style:normal;font-variant:normal;font-weight:normal;font-stretch:normal;font-size:medium;line-height:125%;font-family:Lumos;-inkscape-font-specification:'Lumos, Normal';font-variant-ligatures:normal;font-variant-caps:normal;font-variant-numeric:normal;font-feature-settings:normal;text-align:start;letter-spacing:1.10000002px;word-spacing:0px;writing-mode:lr-tb;text-anchor:start;fill:#000000;fill-opacity:1;stroke:none;stroke-width:0.26458332px;stroke-linecap:butt;stroke-linejoin:miter;stroke-opacity:1"
         id="path4632"
         inkscape:connector-curvature="0" />
      <path
         d="m 93.615253,134.23823 q 0.894691,-0.1037 1.343244,0.25321 0.450961,0.3545 0.352087,0.81752 -0.09887,0.46302 -0.482312,0.8127 -0.381029,0.34727 -1.2299,0.30868 -0.84887,-0.0362 -1.044207,-0.64389 -0.192926,-0.61012 0.161573,-1.04421 0.356913,-0.43649 0.899515,-0.50401 z m -0.05064,0.16399 q -0.897104,0.15675 -0.916397,0.89227 -0.01688,0.73312 0.923631,0.92605 0.942922,0.19051 1.282954,-0.3545 0.342442,-0.54743 0.0217,-1.01286 -0.318328,-0.46784 -1.311891,-0.45096 z"
         style="font-style:normal;font-variant:normal;font-weight:normal;font-stretch:normal;font-size:medium;line-height:125%;font-family:Lumos;-inkscape-font-specification:'Lumos, Normal';font-variant-ligatures:normal;font-variant-caps:normal;font-variant-numeric:normal;font-feature-settings:normal;text-align:start;letter-spacing:1.10000002px;word-spacing:0px;writing-mode:lr-tb;text-anchor:start;fill:#000000;fill-opacity:1;stroke:none;stroke-width:0.26458332px;stroke-linecap:butt;stroke-linejoin:miter;stroke-opacity:1"
         id="path4634"
         inkscape:connector-curvature="0" />
      <path
         d="m 95.72944,134.29128 0.03617,0.0699 q 0.366559,0 0.405143,0.0675 l 0.02653,1.24919 q 0.233921,0.82958 0.991153,0.79341 0.757233,-0.0338 0.991156,-1.05144 l -0.06752,-0.99598 q 0.01929,-0.11576 0.250804,-0.0772 v -0.0965 H 97.59117 v 0.0965 q 0.289388,-0.0386 0.327972,0.13505 l 0.07717,0.87057 q -0.03858,0.95016 -0.658357,0.93087 -0.619773,-0.0217 -0.841637,-0.6463 l -0.02653,-1.1672 q 0,-0.16399 0.313502,-0.14952 l 0.06511,-0.082 z"
         style="font-style:normal;font-variant:normal;font-weight:normal;font-stretch:normal;font-size:medium;line-height:125%;font-family:Lumos;-inkscape-font-specification:'Lumos, Normal';font-variant-ligatures:normal;font-variant-caps:normal;font-variant-numeric:normal;font-feature-settings:normal;text-align:start;letter-spacing:1.10000002px;word-spacing:0px;writing-mode:lr-tb;text-anchor:start;fill:#000000;fill-opacity:1;stroke:none;stroke-width:0.26458332px;stroke-linecap:butt;stroke-linejoin:miter;stroke-opacity:1"
         id="path4636"
         inkscape:connector-curvature="0" />
      <path
         d="m 98.998767,134.19241 q 0.636653,0.0724 1.290183,0.0121 l -0.0145,0.0868 q -0.393082,0 -0.407552,0.11817 v 1.80626 q 0.07717,0.17605 0.390672,0.11576 0.39309,-0.11576 0.36415,-0.47991 l 0.13505,0.0193 q -0.15193,0.34485 -0.12058,1.06109 l -0.0965,-0.0603 q 0.0338,-0.34967 -0.0603,-0.42443 h -1.555464 l 0.02894,-0.0555 q 0.378616,-0.0169 0.487137,-0.17605 v -1.79179 q -0.04582,-0.1471 -0.376206,-0.13263 z"
         style="font-style:normal;font-variant:normal;font-weight:normal;font-stretch:normal;font-size:medium;line-height:125%;font-family:Lumos;-inkscape-font-specification:'Lumos, Normal';font-variant-ligatures:normal;font-variant-caps:normal;font-variant-numeric:normal;font-feature-settings:normal;text-align:start;letter-spacing:1.10000002px;word-spacing:0px;writing-mode:lr-tb;text-anchor:start;fill:#000000;fill-opacity:1;stroke:none;stroke-width:0.26458332px;stroke-linecap:butt;stroke-linejoin:miter;stroke-opacity:1"
         id="path4638"
         inkscape:connector-curvature="0" />
      <path
         d="m 102.1644,134.18759 h -0.84647 l 0.0241,0.0458 q 0.35933,0.0458 0.45097,0.13263 l -0.0145,1.83762 q -0.0651,0.11816 -0.44855,0.17845 l -0.0121,0.0482 0.98392,-0.0193 q 0.95739,-0.0169 1.46141,-0.40514 0.50643,-0.39067 0.25563,-1.13102 -0.2484,-0.74035 -1.8545,-0.6873 z m -0.19052,2.15352 q -0.11575,-0.0169 -0.0772,-0.27491 v -1.6881 q 0,-0.10852 0.0458,-0.1254 1.74839,-0.0989 1.7291,1.02009 -0.0169,1.11897 -1.69775,1.06832 z"
         style="font-style:normal;font-variant:normal;font-weight:normal;font-stretch:normal;font-size:medium;line-height:125%;font-family:Lumos;-inkscape-font-specification:'Lumos, Normal';font-variant-ligatures:normal;font-variant-caps:normal;font-variant-numeric:normal;font-feature-settings:normal;text-align:start;letter-spacing:1.10000002px;word-spacing:0px;writing-mode:lr-tb;text-anchor:start;fill:#000000;fill-opacity:1;stroke:none;stroke-width:0.26458332px;stroke-linecap:butt;stroke-linejoin:miter;stroke-opacity:1"
         id="path4640"
         inkscape:connector-curvature="0" />
      <path
         d="m 104.72713,134.24305 -0.0506,-0.0699 0.89951,0.0265 1.54341,1.67604 -0.0121,-1.41318 q -0.11575,-0.15434 -0.55948,-0.15434 l -0.0386,-0.0965 h 1.17684 l -0.0193,0.13505 q -0.34726,0 -0.40514,0.13505 l 0.0193,1.81349 q -0.0531,0.21222 -0.18087,0.082 l -1.87379,-2.01366 0.0579,1.94372 q 0.0579,0.0724 0.36415,0.0868 l 0.0531,0.0482 h -0.91639 l 0.0651,-0.0482 q 0.20257,-0.0289 0.22669,-0.16399 l 0.041,-1.89549 q -0.0651,-0.1037 -0.39067,-0.0916 z"
         style="font-style:normal;font-variant:normal;font-weight:normal;font-stretch:normal;font-size:medium;line-height:125%;font-family:Lumos;-inkscape-font-specification:'Lumos, Normal';font-variant-ligatures:normal;font-variant-caps:normal;font-variant-numeric:normal;font-feature-settings:normal;text-align:start;letter-spacing:1.10000002px;word-spacing:0px;writing-mode:lr-tb;text-anchor:start;fill:#000000;fill-opacity:1;stroke:none;stroke-width:0.26458332px;stroke-linecap:butt;stroke-linejoin:miter;stroke-opacity:1"
         id="path4642"
         inkscape:connector-curvature="0" />
      <path
         d="m 108.31479,132.68759 v 0.59807 l 0.42443,0.0579 q 0.1254,0.11575 -0.0193,0.69453 l 0.0386,0.0965 0.19292,-0.67524 0.0386,-0.19292 v -0.57878 z"
         style="font-style:normal;font-variant:normal;font-weight:normal;font-stretch:normal;font-size:medium;line-height:125%;font-family:Lumos;-inkscape-font-specification:'Lumos, Normal';font-variant-ligatures:normal;font-variant-caps:normal;font-variant-numeric:normal;font-feature-settings:normal;text-align:start;letter-spacing:1.10000002px;word-spacing:0px;writing-mode:lr-tb;text-anchor:start;fill:#000000;fill-opacity:1;stroke:none;stroke-width:0.26458332px;stroke-linecap:butt;stroke-linejoin:miter;stroke-opacity:1"
         id="path4644"
         inkscape:connector-curvature="0" />
      <path
         d="m 109.53187,134.23099 h 0.0772 q -0.0772,0.14952 0.46543,0.16158 0.64389,0.0675 1.27572,0.0169 0.36173,0.0145 0.41961,-0.17846 l 0.0579,-0.0579 0.0193,0.87781 -0.0699,-0.0434 q -0.0265,-0.47026 -0.34727,-0.48232 -0.50401,-0.041 -0.51848,0.0651 v 1.62298 q 0.0675,0.15675 0.33279,0.13264 l 0.041,0.0844 h -1.17201 l 0.0265,-0.0603 q 0.32074,-0.0121 0.41238,-0.15675 v -1.61092 q -0.0386,-0.13023 -0.69212,-0.0772 -0.21222,-0.0265 -0.2508,0.47026 l -0.041,0.0241 q 0.0265,-0.55948 -0.0362,-0.78858 z"
         style="font-style:normal;font-variant:normal;font-weight:normal;font-stretch:normal;font-size:medium;line-height:125%;font-family:Lumos;-inkscape-font-specification:'Lumos, Normal';font-variant-ligatures:normal;font-variant-caps:normal;font-variant-numeric:normal;font-feature-settings:normal;text-align:start;letter-spacing:1.10000002px;word-spacing:0px;writing-mode:lr-tb;text-anchor:start;fill:#000000;fill-opacity:1;stroke:none;stroke-width:0.26458332px;stroke-linecap:butt;stroke-linejoin:miter;stroke-opacity:1"
         id="path4646"
         inkscape:connector-curvature="0" />
      <path
         d="m 116.12358,134.84594 q -0.0699,-0.48713 0.0193,-0.7307 h -0.15435 q 0.0579,0.21222 -0.18568,0.13263 l -1.6664,0.0121 0.041,0.0579 q 0.36414,0 0.39308,0.1881 l -0.0145,1.71703 q -0.0145,0.12782 -0.28697,0.12782 l -0.01,0.0603 h 0.97427 l -0.082,-0.11816 q -0.29421,0.0265 -0.29421,-0.11576 l 0.0289,-0.65594 q 0.26527,-0.0892 0.33038,-0.0314 l 0.0772,0.20739 0.0579,-0.0193 q -0.0362,-0.34485 -0.007,-0.54019 l -0.0627,-0.0338 -0.0482,0.2291 q -0.26768,0.0531 -0.34726,-0.0434 l -0.0169,-0.93086 0.91639,-0.0121 q 0.26769,0 0.23634,0.41479 z"
         style="font-style:normal;font-variant:normal;font-weight:normal;font-stretch:normal;font-size:medium;line-height:125%;font-family:Lumos;-inkscape-font-specification:'Lumos, Normal';font-variant-ligatures:normal;font-variant-caps:normal;font-variant-numeric:normal;font-feature-settings:normal;text-align:start;letter-spacing:1.10000002px;word-spacing:0px;writing-mode:lr-tb;text-anchor:start;fill:#000000;fill-opacity:1;stroke:none;stroke-width:0.26458332px;stroke-linecap:butt;stroke-linejoin:miter;stroke-opacity:1"
         id="path4648"
         inkscape:connector-curvature="0" />
      <path
         d="m 117.64934,133.70527 q -0.10128,0.27492 -0.23151,0 0.10129,-0.22669 0.1447,-0.57395 0,0.46784 0.0868,0.57395 z m -0.45096,0.15193 q 0.12299,0.23875 -0.12299,0.22186 -0.10852,-0.13263 -0.50643,-0.29179 0.46061,0.13022 0.62942,0.0699 z m 0.62942,0.002 q 0.16881,0.0579 0.63183,-0.0724 -0.40032,0.16158 -0.50884,0.2918 -0.24357,0.0169 -0.12299,-0.21945 z m 0.005,0.4582 q 0.0482,0.27492 0.26044,0.56913 -0.24597,-0.27733 -0.47266,-0.40756 -0.0482,-0.30627 0.21222,-0.16157 z m -0.66319,0.005 q 0.26769,-0.1881 0.19534,0.1447 -0.19534,0.10128 -0.39067,0.36173 0.16639,-0.27492 0.19533,-0.50643 z m -0.32073,0.71865 q 0.63906,0.0434 1.29501,0.007 l -0.0169,0.0531 q -0.39309,0 -0.40997,0.0723 v 1.11174 q 0.0796,0.10611 0.3955,0.0868 l 0.0482,0.0579 h -1.38907 l 0.0314,-0.0386 q 0.37861,-0.01 0.48954,-0.10611 v -1.10209 q -0.0482,-0.0892 -0.38102,-0.082 z"
         style="font-style:normal;font-variant:normal;font-weight:normal;font-stretch:normal;font-size:medium;line-height:125%;font-family:Lumos;-inkscape-font-specification:'Lumos, Normal';font-variant-ligatures:normal;font-variant-caps:normal;font-variant-numeric:normal;font-feature-settings:normal;text-align:start;letter-spacing:1.10000002px;word-spacing:0px;writing-mode:lr-tb;text-anchor:start;fill:#000000;fill-opacity:1;stroke:none;stroke-width:0.26458332px;stroke-linecap:butt;stroke-linejoin:miter;stroke-opacity:1"
         id="path4650"
         inkscape:connector-curvature="0" />
      <path
         d="m 118.89777,134.24305 -0.0506,-0.0699 0.89952,0.0265 1.5434,1.67604 -0.0121,-1.41318 q -0.11575,-0.15434 -0.55948,-0.15434 l -0.0386,-0.0965 h 1.17684 l -0.0193,0.13505 q -0.34726,0 -0.40514,0.13505 l 0.0193,1.81349 q -0.0531,0.21222 -0.18087,0.082 l -1.87379,-2.01366 0.0579,1.94372 q 0.0579,0.0724 0.36415,0.0868 l 0.053,0.0482 h -0.9164 l 0.0651,-0.0482 q 0.20257,-0.0289 0.22669,-0.16399 l 0.041,-1.89549 q -0.0651,-0.1037 -0.39067,-0.0916 z"
         style="font-style:normal;font-variant:normal;font-weight:normal;font-stretch:normal;font-size:medium;line-height:125%;font-family:Lumos;-inkscape-font-specification:'Lumos, Normal';font-variant-ligatures:normal;font-variant-caps:normal;font-variant-numeric:normal;font-feature-settings:normal;text-align:start;letter-spacing:1.10000002px;word-spacing:0px;writing-mode:lr-tb;text-anchor:start;fill:#000000;fill-opacity:1;stroke:none;stroke-width:0.26458332px;stroke-linecap:butt;stroke-linejoin:miter;stroke-opacity:1"
         id="path4652"
         inkscape:connector-curvature="0" />
      <path
         d="m 123.34153,134.18759 h -0.84646 l 0.0241,0.0458 q 0.35933,0.0458 0.45097,0.13263 l -0.0145,1.83762 q -0.0651,0.11816 -0.44855,0.17845 l -0.0121,0.0482 0.98392,-0.0193 q 0.95739,-0.0169 1.46141,-0.40514 0.50643,-0.39067 0.25563,-1.13102 -0.2484,-0.74035 -1.8545,-0.6873 z m -0.19051,2.15352 q -0.11575,-0.0169 -0.0772,-0.27491 v -1.6881 q 0,-0.10852 0.0458,-0.1254 1.74839,-0.0989 1.72909,1.02009 -0.0169,1.11897 -1.69774,1.06832 z"
         style="font-style:normal;font-variant:normal;font-weight:normal;font-stretch:normal;font-size:medium;line-height:125%;font-family:Lumos;-inkscape-font-specification:'Lumos, Normal';font-variant-ligatures:normal;font-variant-caps:normal;font-variant-numeric:normal;font-feature-settings:normal;text-align:start;letter-spacing:1.10000002px;word-spacing:0px;writing-mode:lr-tb;text-anchor:start;fill:#000000;fill-opacity:1;stroke:none;stroke-width:0.26458332px;stroke-linecap:butt;stroke-linejoin:miter;stroke-opacity:1"
         id="path4654"
         inkscape:connector-curvature="0" />
      <path
         d="m 127.54338,134.23099 h 0.0772 q -0.0772,0.14952 0.46543,0.16158 0.64389,0.0675 1.27572,0.0169 0.36174,0.0145 0.41961,-0.17846 l 0.0579,-0.0579 0.0193,0.87781 -0.0699,-0.0434 q -0.0265,-0.47026 -0.34727,-0.48232 -0.50402,-0.041 -0.51849,0.0651 v 1.62298 q 0.0675,0.15675 0.3328,0.13264 l 0.041,0.0844 h -1.17202 l 0.0265,-0.0603 q 0.32074,-0.0121 0.41238,-0.15675 v -1.61092 q -0.0386,-0.13023 -0.69212,-0.0772 -0.21222,-0.0265 -0.2508,0.47026 l -0.041,0.0241 q 0.0265,-0.55948 -0.0362,-0.78858 z"
         style="font-style:normal;font-variant:normal;font-weight:normal;font-stretch:normal;font-size:medium;line-height:125%;font-family:Lumos;-inkscape-font-specification:'Lumos, Normal';font-variant-ligatures:normal;font-variant-caps:normal;font-variant-numeric:normal;font-feature-settings:normal;text-align:start;letter-spacing:1.10000002px;word-spacing:0px;writing-mode:lr-tb;text-anchor:start;fill:#000000;fill-opacity:1;stroke:none;stroke-width:0.26458332px;stroke-linecap:butt;stroke-linejoin:miter;stroke-opacity:1"
         id="path4656"
         inkscape:connector-curvature="0" />
      <path
         d="m 130.39068,134.23099 q 0.48232,0 0.9791,0 l -0.0145,0.0892 q -0.33762,0 -0.31351,0.14228 v 0.64148 l 1.25402,0.0145 -0.0338,-0.63665 q -0.0386,-0.21222 -0.34727,-0.15434 l -0.0386,-0.11575 h 0.88746 l -0.0386,0.13504 q -0.28939,-0.0579 -0.28939,0.0965 l 0.0579,1.88102 q 0.0772,0.0892 0.3762,0.0892 l 0.0289,0.0579 -1.00804,0.0169 0.0145,-0.0748 q 0.36655,0 0.41479,-0.10128 l -0.0241,-1.01768 -0.0772,-0.0434 -1.16237,0.0265 0.01,0.94774 q 0.0145,0.1447 0.27492,0.15916 v 0.0579 l -0.88745,-0.0145 -0.0145,-0.0434 q 0.22187,0 0.27492,-0.1037 l -0.01,-1.81832 q -0.0675,-0.13022 -0.26527,-0.15916 z"
         style="font-style:normal;font-variant:normal;font-weight:normal;font-stretch:normal;font-size:medium;line-height:125%;font-family:Lumos;-inkscape-font-specification:'Lumos, Normal';font-variant-ligatures:normal;font-variant-caps:normal;font-variant-numeric:normal;font-feature-settings:normal;text-align:start;letter-spacing:1.10000002px;word-spacing:0px;writing-mode:lr-tb;text-anchor:start;fill:#000000;fill-opacity:1;stroke:none;stroke-width:0.26458332px;stroke-linecap:butt;stroke-linejoin:miter;stroke-opacity:1"
         id="path4658"
         inkscape:connector-curvature="0" />
      <path
         d="m 133.28381,136.41105 -0.0121,-0.0458 q 0.2701,-0.0289 0.34968,-0.13505 l 0.72588,-1.82555 q -0.0241,-0.18087 -0.42443,-0.0965 l 0.0362,-0.0965 h 1.32877 l -0.0724,0.11576 q -0.32556,-0.1037 -0.34244,0.0748 l 0.60772,1.77732 q 0.0627,0.13505 0.27492,0.13505 l 0.0579,0.0965 q -0.5016,-0.0193 -0.95015,0.0386 v -0.0965 q 0.27009,0.0193 0.28938,-0.19292 l -0.24597,-0.55225 q -0.13988,-0.0314 -0.90434,0.0289 l -0.19775,0.61254 q 0.10611,0.0699 0.36656,0.0699 l 0.0145,0.0916 z m 1.60851,-0.96463 -0.30626,-0.82234 q -0.0386,-0.007 -0.12782,0.0675 l -0.27974,0.69695 q 0.58601,0.0458 0.71382,0.0579 z"
         style="font-style:normal;font-variant:normal;font-weight:normal;font-stretch:normal;font-size:medium;line-height:125%;font-family:Lumos;-inkscape-font-specification:'Lumos, Normal';font-variant-ligatures:normal;font-variant-caps:normal;font-variant-numeric:normal;font-feature-settings:normal;text-align:start;letter-spacing:1.10000002px;word-spacing:0px;writing-mode:lr-tb;text-anchor:start;fill:#000000;fill-opacity:1;stroke:none;stroke-width:0.26458332px;stroke-linecap:butt;stroke-linejoin:miter;stroke-opacity:1"
         id="path4660"
         inkscape:connector-curvature="0" />
      <path
         d="m 136.22998,134.23099 h 0.0772 q -0.0772,0.14952 0.46544,0.16158 0.64389,0.0675 1.27572,0.0169 0.36173,0.0145 0.41961,-0.17846 l 0.0579,-0.0579 0.0193,0.87781 -0.0699,-0.0434 q -0.0265,-0.47026 -0.34727,-0.48232 -0.50401,-0.041 -0.51848,0.0651 v 1.62298 q 0.0675,0.15675 0.33279,0.13264 l 0.041,0.0844 h -1.17202 l 0.0265,-0.0603 q 0.32074,-0.0121 0.41237,-0.15675 v -1.61092 q -0.0386,-0.13023 -0.69211,-0.0772 -0.21222,-0.0265 -0.25081,0.47026 l -0.041,0.0241 q 0.0265,-0.55948 -0.0362,-0.78858 z"
         style="font-style:normal;font-variant:normal;font-weight:normal;font-stretch:normal;font-size:medium;line-height:125%;font-family:Lumos;-inkscape-font-specification:'Lumos, Normal';font-variant-ligatures:normal;font-variant-caps:normal;font-variant-numeric:normal;font-feature-settings:normal;text-align:start;letter-spacing:1.10000002px;word-spacing:0px;writing-mode:lr-tb;text-anchor:start;fill:#000000;fill-opacity:1;stroke:none;stroke-width:0.26458332px;stroke-linecap:butt;stroke-linejoin:miter;stroke-opacity:1"
         id="path4662"
         inkscape:connector-curvature="0" />
      <path
         d="m 140.77668,134.22376 q 0.64148,0.0724 1.9606,0 0.89469,0.22669 0.71141,0.92363 -0.18327,0.69694 -1.37941,0.68247 -0.082,-0.0289 -0.0506,-0.0844 1.19613,-0.0699 1.06832,-0.80064 -0.12781,-0.73312 -1.22749,-0.60048 -0.19051,-0.0217 -0.20739,0.0916 v 1.76526 q 0.0338,0.18328 0.4172,0.16881 l 0.0314,0.0603 h -1.40112 l 0.0289,-0.0603 q 0.3979,0.0289 0.49437,-0.16881 v -1.75079 q -0.0482,-0.14229 -0.38103,-0.12782 z"
         style="font-style:normal;font-variant:normal;font-weight:normal;font-stretch:normal;font-size:medium;line-height:125%;font-family:Lumos;-inkscape-font-specification:'Lumos, Normal';font-variant-ligatures:normal;font-variant-caps:normal;font-variant-numeric:normal;font-feature-settings:normal;text-align:start;letter-spacing:1.10000002px;word-spacing:0px;writing-mode:lr-tb;text-anchor:start;fill:#000000;fill-opacity:1;stroke:none;stroke-width:0.26458332px;stroke-linecap:butt;stroke-linejoin:miter;stroke-opacity:1"
         id="path4664"
         inkscape:connector-curvature="0" />
      <path
         d="m 143.84343,136.41105 -0.0121,-0.0458 q 0.27009,-0.0289 0.34968,-0.13505 l 0.72588,-1.82555 q -0.0241,-0.18087 -0.42444,-0.0965 l 0.0362,-0.0965 h 1.32878 l -0.0724,0.11576 q -0.32556,-0.1037 -0.34244,0.0748 l 0.60772,1.77732 q 0.0627,0.13505 0.27491,0.13505 l 0.0579,0.0965 q -0.5016,-0.0193 -0.95016,0.0386 v -0.0965 q 0.2701,0.0193 0.28939,-0.19292 l -0.24598,-0.55225 q -0.13987,-0.0314 -0.90434,0.0289 l -0.19774,0.61254 q 0.1061,0.0699 0.36655,0.0699 l 0.0145,0.0916 z m 1.60852,-0.96463 -0.30627,-0.82234 q -0.0386,-0.007 -0.12781,0.0675 l -0.27974,0.69695 q 0.58601,0.0458 0.71382,0.0579 z"
         style="font-style:normal;font-variant:normal;font-weight:normal;font-stretch:normal;font-size:medium;line-height:125%;font-family:Lumos;-inkscape-font-specification:'Lumos, Normal';font-variant-ligatures:normal;font-variant-caps:normal;font-variant-numeric:normal;font-feature-settings:normal;text-align:start;letter-spacing:1.10000002px;word-spacing:0px;writing-mode:lr-tb;text-anchor:start;fill:#000000;fill-opacity:1;stroke:none;stroke-width:0.26458332px;stroke-linecap:butt;stroke-linejoin:miter;stroke-opacity:1"
         id="path4666"
         inkscape:connector-curvature="0" />
      <path
         d="m 148.98896,134.36604 h -0.0965 l -0.0241,0.15916 q -0.47508,-0.3762 -1.19373,-0.2098 -0.71623,0.1664 -0.80064,0.92122 -0.0844,0.75241 0.35209,1.03215 0.43649,0.27974 1.3963,0.31591 l -0.0145,-0.68729 q 0.0434,-0.15676 0.30144,-0.14229 l 0.0579,-0.0699 h -0.94533 l 0.0555,0.11334 q 0.4172,-0.0844 0.4172,0.3328 v 0.30386 q -0.9188,0.0289 -1.16961,-0.51849 -0.2508,-0.54984 0.0989,-1.21302 0.35209,-0.66559 1.3143,-0.10611 0.15675,0.0892 0.21222,0.42444 l 0.0772,0.0386 z"
         style="font-style:normal;font-variant:normal;font-weight:normal;font-stretch:normal;font-size:medium;line-height:125%;font-family:Lumos;-inkscape-font-specification:'Lumos, Normal';font-variant-ligatures:normal;font-variant-caps:normal;font-variant-numeric:normal;font-feature-settings:normal;text-align:start;letter-spacing:1.10000002px;word-spacing:0px;writing-mode:lr-tb;text-anchor:start;fill:#000000;fill-opacity:1;stroke:none;stroke-width:0.26458332px;stroke-linecap:butt;stroke-linejoin:miter;stroke-opacity:1"
         id="path4668"
         inkscape:connector-curvature="0" />
      <path
         d="m 151.54206,134.82183 -0.0338,-0.80305 h -0.0965 q 0.0193,0.19533 -0.17363,0.18086 l -1.67845,0.0217 0.0386,0.0555 q 0.28939,0.0338 0.38344,0.0916 v 1.91479 q -0.0169,0.13505 -0.28456,0.13505 l -0.0145,0.0603 1.07797,-0.0289 q 0.15917,0.0458 0.1881,0.17363 h 0.0579 l 0.01,-0.64148 -0.0772,0.0434 q -0.0338,0.32074 -0.22187,0.30145 -0.43408,0.0651 -0.43408,-0.0868 v -0.709 q 0.30145,-0.0772 0.36656,-0.0169 l 0.0338,0.33279 0.0627,0.0145 q 0,-0.51125 0.0289,-0.78135 l -0.0772,0.0193 -0.0314,0.2508 q -0.30627,0.0434 -0.34968,-0.0458 l -0.0169,-0.97909 0.92363,-0.0145 q 0.26769,-0.0193 0.23875,0.4365 z"
         style="font-style:normal;font-variant:normal;font-weight:normal;font-stretch:normal;font-size:medium;line-height:125%;font-family:Lumos;-inkscape-font-specification:'Lumos, Normal';font-variant-ligatures:normal;font-variant-caps:normal;font-variant-numeric:normal;font-feature-settings:normal;text-align:start;letter-spacing:1.10000002px;word-spacing:0px;writing-mode:lr-tb;text-anchor:start;fill:#000000;fill-opacity:1;stroke:none;stroke-width:0.26458332px;stroke-linecap:butt;stroke-linejoin:miter;stroke-opacity:1"
         id="path4670"
         inkscape:connector-curvature="0" />
      <path
         d="m 152.45528,135.81298 v 0.59807 h 0.67523 v -0.59807 z"
         style="font-style:normal;font-variant:normal;font-weight:normal;font-stretch:normal;font-size:medium;line-height:125%;font-family:Lumos;-inkscape-font-specification:'Lumos, Normal';font-variant-ligatures:normal;font-variant-caps:normal;font-variant-numeric:normal;font-feature-settings:normal;text-align:start;letter-spacing:1.10000002px;word-spacing:0px;writing-mode:lr-tb;text-anchor:start;fill:#000000;fill-opacity:1;stroke:none;stroke-width:0.26458332px;stroke-linecap:butt;stroke-linejoin:miter;stroke-opacity:1"
         id="path4672"
         inkscape:connector-curvature="0" />
    </g>
  </g>
</svg>
